<svg xmlns="http://www.w3.org/2000/svg" id="canvas" viewBox="204.606 180.009 937.040 164.496"><path d="M 281.43,206.18 C 280.39 205.72, 279.06 205.22, 276.23 205.33 C 273.40 205.43, 271.33 205.89, 267.27 206.71 C 263.20 207.53, 260.55 208.02, 255.90 209.42 C 251.24 210.82, 248.44 211.76, 244.01 213.72 C 239.57 215.68, 237.28 216.87, 233.71 219.22 C 230.15 221.57, 228.44 222.75, 226.18 225.45 C 223.92 228.16, 222.92 229.77, 222.41 232.77 C 221.90 235.77, 222.15 237.56, 223.62 240.46 C 225.09 243.36, 226.69 244.60, 229.76 247.29 C 232.83 249.97, 234.92 251.19, 238.99 253.87 C 243.06 256.56, 245.53 257.83, 250.13 260.71 C 254.72 263.58, 257.53 265.04, 261.97 268.23 C 266.42 271.43, 268.81 273.18, 272.34 276.68 C 275.87 280.18, 277.53 282.10, 279.62 285.73 C 281.72 289.35, 282.52 291.15, 282.82 294.81 C 283.12 298.48, 282.82 300.27, 281.12 304.04 C 279.43 307.81, 277.96 309.79, 274.34 313.66 C 270.72 317.53, 268.17 319.75, 263.01 323.39 C 257.85 327.04, 254.38 329.05, 248.54 331.87 C 242.69 334.69, 239.23 335.99, 233.79 337.49 C 228.34 338.99, 225.40 339.30, 221.32 339.38 C 217.23 339.46, 215.56 339.06, 213.37 337.90 C 211.17 336.74, 210.65 335.90, 210.33 333.58 C 210.01 331.26, 210.25 329.55, 211.78 326.28 C 213.31 323.01, 214.68 320.92, 217.97 317.25 C 221.26 313.58, 223.50 311.38, 228.21 307.93 C 232.92 304.48, 235.88 302.83, 241.51 300.01 C 247.14 297.19, 250.49 296.04, 256.37 293.83 C 262.26 291.61, 265.33 290.62, 270.93 288.93 C 276.53 287.23, 279.47 286.56, 284.37 285.35 C 289.27 284.15, 291.60 283.79, 295.43 282.89 C 299.25 281.99, 301.00 281.80, 303.49 280.85 C 305.98 279.89, 306.83 279.31, 307.86 278.11 C 308.90 276.91, 309.04 276.15, 308.67 274.85 C 308.30 273.56, 307.66 272.53, 306.00 271.64 C 304.34 270.76, 302.86 270.27, 300.37 270.43 C 297.87 270.58, 296.19 270.86, 293.52 272.39 C 290.84 273.92, 289.38 275.19, 286.99 278.07 C 284.61 280.95, 283.35 282.95, 281.60 286.81 C 279.85 290.67, 279.08 293.07, 278.25 297.37 C 277.43 301.67, 277.15 304.21, 277.47 308.29 C 277.79 312.36, 278.24 314.59, 279.86 317.76 C 281.48 320.93, 282.75 322.58, 285.56 324.15 C 288.37 325.72, 290.34 326.14, 293.91 325.60 C 297.47 325.06, 299.51 324.16, 303.38 321.45 C 307.26 318.74, 309.33 316.74, 313.29 312.05 C 317.25 307.36, 319.39 304.33, 323.20 298.01 C 327.01 291.68, 328.98 287.85, 332.34 280.42 C 335.71 272.99, 337.36 268.62, 340.03 260.85 C 342.70 253.08, 343.93 248.82, 345.69 241.57 C 347.46 234.32, 348.06 230.47, 348.86 224.59 C 349.65 218.71, 349.95 215.77, 349.65 212.16 C 349.36 208.54, 348.60 207.14, 347.37 206.50 C 346.15 205.86, 344.83 206.37, 343.53 208.96 C 342.22 211.55, 341.76 213.97, 340.84 219.43 C 339.92 224.90, 339.42 228.74, 338.91 236.29 C 338.41 243.84, 338.22 248.61, 338.32 257.17 C 338.41 265.74, 338.61 270.64, 339.38 279.11 C 340.15 287.57, 340.66 292.15, 342.18 299.48 C 343.70 306.80, 344.72 310.43, 346.99 315.72 C 349.26 321.01, 350.57 323.15, 353.54 325.93 C 356.50 328.71, 358.36 329.50, 361.81 329.63 C 365.27 329.76, 367.31 328.97, 370.82 326.57 C 374.33 324.16, 376.17 322.03, 379.36 317.61 C 382.54 313.19, 384.25 310.04, 386.76 304.46 C 389.26 298.89, 390.39 295.41, 391.89 289.74 C 393.40 284.08, 393.87 280.83, 394.26 276.14 C 394.66 271.44, 394.74 269.10, 393.87 266.27 C 393.00 263.44, 391.86 262.52, 389.92 262.01 C 387.97 261.49, 386.35 261.76, 384.15 263.70 C 381.94 265.65, 380.71 267.71, 378.91 271.72 C 377.11 275.73, 376.13 278.54, 375.15 283.77 C 374.16 289.00, 373.86 292.31, 373.98 297.88 C 374.10 303.44, 374.56 306.79, 375.76 311.58 C 376.97 316.38, 377.83 318.72, 380.00 321.86 C 382.18 325.00, 383.67 326.42, 386.65 327.27 C 389.63 328.13, 391.59 327.83, 394.90 326.14 C 398.21 324.46, 399.91 322.59, 403.21 318.85 C 406.51 315.10, 408.33 312.33, 411.41 307.40 C 414.48 302.47, 416.07 299.16, 418.58 294.20 C 421.08 289.25, 422.44 286.27, 423.95 282.62 C 425.47 278.96, 425.87 277.19, 426.16 275.93 C 426.44 274.67, 425.74 274.81, 425.39 276.31 C 425.04 277.81, 424.64 279.74, 424.41 283.43 C 424.17 287.11, 424.04 290.24, 424.22 294.75 C 424.39 299.26, 424.54 302.14, 425.27 305.97 C 426.00 309.81, 426.44 311.75, 427.88 313.93 C 429.31 316.11, 430.36 316.83, 432.46 316.85 C 434.56 316.87, 435.96 316.29, 438.39 314.03 C 440.82 311.77, 442.07 309.53, 444.61 305.55 C 447.15 301.58, 448.62 298.69, 451.09 294.18 C 453.56 289.67, 454.89 286.86, 456.95 283.02 C 459.01 279.18, 460.16 277.14, 461.40 274.97 C 462.63 272.80, 462.74 272.19, 463.13 272.15 C 463.51 272.10, 463.25 272.78, 463.32 274.74 C 463.40 276.71, 463.28 278.46, 463.50 281.97 C 463.72 285.47, 463.88 288.11, 464.41 292.26 C 464.94 296.42, 465.16 298.96, 466.15 302.75 C 467.14 306.55, 467.61 308.54, 469.38 311.23 C 471.16 313.92, 472.39 315.20, 475.02 316.20 C 477.65 317.21, 479.32 317.23, 482.53 316.28 C 485.74 315.33, 487.54 314.12, 491.07 311.47 C 494.60 308.81, 496.61 306.78, 500.19 302.99 C 503.78 299.21, 505.70 296.69, 509.00 292.56 C 512.31 288.44, 514.01 285.99, 516.72 282.36 C 519.43 278.74, 521.00 277.08, 522.55 274.44 C 524.11 271.80, 524.49 270.61, 524.50 269.16 C 524.51 267.72, 523.87 267.22, 522.58 267.21 C 521.30 267.20, 520.02 267.44, 518.08 269.11 C 516.14 270.78, 514.88 272.43, 512.88 275.57 C 510.87 278.70, 509.70 280.96, 508.04 284.79 C 506.38 288.63, 505.55 290.90, 504.58 294.75 C 503.61 298.59, 503.07 300.77, 503.18 304.00 C 503.30 307.24, 503.77 308.94, 505.17 310.93 C 506.56 312.92, 507.77 313.76, 510.15 313.98 C 512.54 314.19, 514.24 313.76, 517.07 312.00 C 519.90 310.23, 521.46 308.57, 524.31 305.17 C 527.16 301.76, 528.78 299.25, 531.33 294.95 C 533.88 290.65, 535.24 287.78, 537.04 283.65 C 538.83 279.52, 539.79 277.34, 540.32 274.29 C 540.85 271.24, 540.53 269.78, 539.70 268.39 C 538.86 266.99, 537.78 266.81, 536.14 267.31 C 534.50 267.82, 533.07 268.71, 531.49 270.91 C 529.91 273.11, 529.10 274.93, 528.25 278.31 C 527.39 281.68, 527.13 283.94, 527.22 287.79 C 527.31 291.63, 527.50 293.98, 528.69 297.51 C 529.89 301.05, 530.81 302.93, 533.20 305.44 C 535.59 307.96, 537.18 309.13, 540.65 310.10 C 544.12 311.07, 546.38 311.12, 550.54 310.30 C 554.69 309.47, 557.09 308.35, 561.42 305.97 C 565.75 303.58, 568.29 301.45, 572.19 298.35 C 576.09 295.25, 578.18 293.26, 580.93 290.46 C 583.68 287.67, 585.12 285.75, 585.94 284.35 C 586.75 282.96, 586.31 282.58, 584.99 283.47 C 583.67 284.36, 582.19 286.21, 579.33 288.81 C 576.48 291.42, 574.53 293.48, 570.72 296.50 C 566.91 299.52, 564.42 301.63, 560.29 303.90 C 556.16 306.17, 553.84 307.12, 550.06 307.84 C 546.28 308.56, 544.35 308.37, 541.39 307.51 C 538.44 306.64, 537.25 305.69, 535.28 303.51 C 533.30 301.33, 532.48 299.75, 531.50 296.60 C 530.53 293.45, 530.32 291.24, 530.39 287.78 C 530.47 284.32, 531.00 282.26, 531.87 279.29 C 532.74 276.31, 533.68 274.96, 534.72 272.91 C 535.77 270.87, 536.41 269.85, 537.11 269.06 C 537.81 268.27, 538.15 268.04, 538.21 268.96 C 538.27 269.88, 538.10 270.93, 537.39 273.67 C 536.69 276.41, 536.32 278.66, 534.68 282.66 C 533.04 286.66, 531.68 289.53, 529.18 293.67 C 526.68 297.81, 524.97 300.23, 522.20 303.35 C 519.43 306.48, 517.72 307.68, 515.33 309.31 C 512.94 310.94, 511.86 311.43, 510.25 311.49 C 508.65 311.55, 508.10 311.10, 507.31 309.59 C 506.51 308.08, 506.27 306.78, 506.28 303.95 C 506.29 301.12, 506.46 299.03, 507.36 295.45 C 508.26 291.87, 509.07 289.61, 510.79 286.05 C 512.51 282.48, 513.95 280.48, 515.95 277.62 C 517.95 274.75, 519.35 273.52, 520.77 271.70 C 522.19 269.89, 522.60 269.15, 523.04 268.56 C 523.47 267.97, 523.55 267.90, 522.95 268.76 C 522.36 269.62, 521.69 270.43, 520.06 272.88 C 518.44 275.32, 517.37 277.33, 514.82 280.99 C 512.26 284.66, 510.56 287.12, 507.30 291.20 C 504.04 295.28, 502.09 297.76, 498.53 301.39 C 494.98 305.03, 492.90 306.95, 489.53 309.38 C 486.16 311.80, 484.39 312.64, 481.68 313.51 C 478.97 314.39, 477.95 314.50, 475.98 313.73 C 474.02 312.96, 473.28 311.99, 471.87 309.65 C 470.47 307.32, 469.83 305.59, 468.96 302.04 C 468.09 298.49, 467.92 295.99, 467.54 291.92 C 467.16 287.85, 467.36 285.25, 467.05 281.70 C 466.75 278.15, 466.78 276.31, 466.01 274.19 C 465.24 272.06, 464.58 271.22, 463.19 271.06 C 461.81 270.90, 460.79 271.25, 459.09 273.40 C 457.39 275.56, 456.72 277.91, 454.69 281.82 C 452.66 285.74, 451.41 288.54, 448.93 292.99 C 446.46 297.43, 444.86 300.27, 442.31 304.05 C 439.77 307.83, 438.21 309.70, 436.22 311.88 C 434.24 314.06, 433.59 314.80, 432.38 314.95 C 431.16 315.11, 430.98 314.56, 430.15 312.67 C 429.32 310.77, 428.77 309.07, 428.24 305.47 C 427.70 301.87, 427.58 299.04, 427.48 294.65 C 427.38 290.26, 427.80 287.20, 427.74 283.51 C 427.68 279.82, 427.76 277.85, 427.20 276.19 C 426.63 274.53, 426.05 274.11, 424.93 275.20 C 423.82 276.28, 423.28 278.00, 421.63 281.61 C 419.98 285.22, 419.08 288.32, 416.68 293.26 C 414.27 298.19, 412.66 301.47, 409.62 306.28 C 406.58 311.09, 404.66 313.79, 401.49 317.32 C 398.31 320.85, 396.58 322.42, 393.75 323.93 C 390.92 325.44, 389.70 325.56, 387.34 324.88 C 384.98 324.20, 383.84 323.29, 381.94 320.53 C 380.04 317.76, 379.02 315.59, 377.85 311.05 C 376.68 306.52, 376.17 303.20, 376.09 297.84 C 376.00 292.47, 376.37 289.22, 377.44 284.23 C 378.51 279.24, 379.68 276.58, 381.44 272.89 C 383.20 269.21, 384.63 267.67, 386.25 265.81 C 387.87 263.96, 388.50 263.38, 389.53 263.60 C 390.56 263.82, 390.88 264.44, 391.40 266.91 C 391.92 269.39, 392.38 271.51, 392.11 275.98 C 391.84 280.45, 391.46 283.72, 390.04 289.26 C 388.61 294.79, 387.47 298.24, 384.99 303.66 C 382.51 309.08, 380.74 312.16, 377.65 316.37 C 374.56 320.58, 372.69 322.50, 369.54 324.72 C 366.38 326.94, 364.81 327.49, 361.87 327.46 C 358.93 327.42, 357.52 327.01, 354.83 324.54 C 352.14 322.06, 350.70 320.16, 348.44 315.09 C 346.18 310.02, 345.07 306.41, 343.52 299.19 C 341.96 291.97, 341.43 287.39, 340.67 278.99 C 339.91 270.58, 339.71 265.68, 339.70 257.17 C 339.69 248.65, 339.95 243.89, 340.61 236.42 C 341.27 228.95, 341.94 225.13, 343.00 219.83 C 344.05 214.53, 345.10 212.44, 345.88 209.92 C 346.65 207.39, 346.54 206.74, 346.87 207.21 C 347.19 207.68, 347.44 208.83, 347.51 212.27 C 347.58 215.70, 347.85 218.59, 347.22 224.39 C 346.58 230.19, 346.03 234.04, 344.34 241.25 C 342.65 248.45, 341.43 252.70, 338.78 260.42 C 336.13 268.14, 334.47 272.49, 331.09 279.85 C 327.71 287.20, 325.72 291.00, 321.88 297.20 C 318.04 303.40, 315.83 306.36, 311.88 310.84 C 307.93 315.31, 305.78 317.15, 302.11 319.58 C 298.44 322.01, 296.56 322.57, 293.52 323.00 C 290.49 323.42, 289.18 323.02, 286.94 321.72 C 284.69 320.43, 283.67 319.25, 282.30 316.52 C 280.92 313.79, 280.37 311.81, 280.07 308.08 C 279.77 304.35, 279.99 301.89, 280.79 297.87 C 281.60 293.85, 282.38 291.52, 284.10 287.98 C 285.81 284.43, 287.11 282.57, 289.37 280.14 C 291.62 277.71, 293.10 276.96, 295.37 275.81 C 297.63 274.66, 298.81 274.63, 300.70 274.41 C 302.60 274.19, 303.57 274.48, 304.84 274.71 C 306.11 274.94, 306.71 275.16, 307.05 275.54 C 307.40 275.93, 307.47 276.12, 306.56 276.64 C 305.66 277.17, 304.87 277.37, 302.52 278.17 C 300.18 278.96, 298.56 279.56, 294.84 280.63 C 291.11 281.69, 288.77 282.16, 283.88 283.48 C 279.00 284.81, 276.04 285.51, 270.42 287.27 C 264.80 289.03, 261.72 290.03, 255.78 292.27 C 249.85 294.50, 246.48 295.64, 240.74 298.46 C 235.00 301.28, 231.98 302.92, 227.09 306.37 C 222.20 309.82, 219.83 311.95, 216.30 315.72 C 212.77 319.48, 211.13 321.53, 209.44 325.19 C 207.74 328.84, 207.27 331.03, 207.83 333.99 C 208.39 336.96, 209.51 338.52, 212.22 340.01 C 214.93 341.50, 216.97 341.61, 221.38 341.45 C 225.79 341.29, 228.70 340.83, 234.28 339.23 C 239.86 337.62, 243.33 336.29, 249.28 333.42 C 255.24 330.55, 258.74 328.55, 264.04 324.86 C 269.34 321.18, 271.96 318.99, 275.76 315.00 C 279.57 311.01, 281.21 308.99, 283.06 304.92 C 284.91 300.84, 285.32 298.69, 285.00 294.64 C 284.68 290.59, 283.70 288.55, 281.45 284.67 C 279.20 280.79, 277.42 278.86, 273.75 275.25 C 270.09 271.65, 267.63 269.89, 263.13 266.63 C 258.62 263.37, 255.80 261.89, 251.24 258.95 C 246.67 256.01, 244.24 254.67, 240.30 251.94 C 236.35 249.21, 234.35 247.86, 231.53 245.30 C 228.70 242.74, 227.45 241.55, 226.18 239.14 C 224.91 236.73, 224.76 235.64, 225.17 233.24 C 225.57 230.83, 226.23 229.54, 228.20 227.13 C 230.17 224.73, 231.69 223.47, 235.04 221.22 C 238.39 218.96, 240.63 217.73, 244.94 215.85 C 249.25 213.98, 252.03 213.11, 256.60 211.86 C 261.17 210.60, 263.81 210.23, 267.79 209.57 C 271.78 208.92, 273.79 208.98, 276.52 208.59 C 279.25 208.20, 280.47 208.09, 281.45 207.61 C 282.43 207.13, 282.48 206.64, 281.43 206.18" style="stroke: black; fill: black;"/><path d="M 731.58,197.22 C 731.79 196.45, 731.80 195.45, 731.23 193.90 C 730.66 192.36, 730.27 191.24, 728.73 189.49 C 727.20 187.74, 726.15 186.45, 723.57 185.16 C 721.00 183.87, 719.23 183.20, 715.86 183.05 C 712.50 182.90, 710.56 183.12, 706.75 184.40 C 702.94 185.67, 700.70 186.78, 696.81 189.43 C 692.93 192.08, 690.74 193.91, 687.33 197.64 C 683.91 201.38, 682.04 203.65, 679.73 208.11 C 677.43 212.57, 676.52 215.11, 675.80 219.93 C 675.08 224.75, 675.14 227.36, 676.14 232.20 C 677.13 237.05, 678.20 239.42, 680.76 244.15 C 683.33 248.88, 685.24 251.28, 688.95 255.85 C 692.67 260.42, 695.05 262.64, 699.33 267.02 C 703.60 271.39, 706.16 273.47, 710.32 277.72 C 714.47 281.97, 716.78 284.21, 720.11 288.27 C 723.45 292.34, 725.00 294.36, 726.99 298.06 C 728.98 301.75, 729.64 303.50, 730.06 306.73 C 730.49 309.96, 730.38 311.40, 729.10 314.21 C 727.83 317.01, 726.54 318.34, 723.70 320.76 C 720.86 323.18, 718.82 324.47, 714.89 326.31 C 710.96 328.14, 708.35 328.95, 704.04 329.92 C 699.74 330.90, 697.17 331.23, 693.34 331.20 C 689.52 331.17, 687.53 330.68, 684.92 329.78 C 682.31 328.89, 681.36 328.24, 680.29 326.74 C 679.22 325.24, 679.20 324.36, 679.56 322.28 C 679.92 320.20, 680.29 318.98, 682.08 316.35 C 683.87 313.72, 685.26 312.05, 688.51 309.15 C 691.76 306.25, 693.97 304.68, 698.31 301.87 C 702.65 299.06, 705.14 297.60, 710.20 295.08 C 715.27 292.57, 718.30 291.35, 723.62 289.30 C 728.95 287.25, 731.93 286.39, 736.84 284.84 C 741.76 283.28, 744.12 282.67, 748.20 281.52 C 752.28 280.37, 754.31 280.00, 757.24 279.08 C 760.18 278.16, 761.38 277.70, 762.87 276.91 C 764.36 276.12, 764.64 275.78, 764.69 275.12 C 764.74 274.47, 764.25 273.92, 763.14 273.63 C 762.03 273.35, 760.97 273.11, 759.15 273.68 C 757.33 274.25, 756.03 274.87, 754.04 276.48 C 752.05 278.09, 750.82 279.16, 749.20 281.74 C 747.58 284.32, 746.86 286.03, 745.93 289.37 C 745.00 292.71, 744.51 294.81, 744.56 298.43 C 744.62 302.05, 744.87 304.26, 746.22 307.49 C 747.56 310.72, 748.67 312.42, 751.28 314.58 C 753.90 316.74, 755.82 317.60, 759.30 318.27 C 762.79 318.94, 765.04 318.85, 768.72 317.92 C 772.40 317.00, 774.50 316.01, 777.69 313.65 C 780.88 311.28, 782.53 309.54, 784.66 306.11 C 786.78 302.67, 787.64 300.45, 788.31 296.49 C 788.97 292.52, 788.88 290.08, 787.98 286.27 C 787.08 282.45, 786.00 280.44, 783.81 277.41 C 781.61 274.38, 779.85 272.89, 776.99 271.13 C 774.13 269.37, 772.14 268.76, 769.49 268.60 C 766.84 268.45, 765.23 269.15, 763.76 270.34 C 762.28 271.53, 761.75 272.88, 762.12 274.55 C 762.49 276.22, 763.34 277.52, 765.62 278.70 C 767.89 279.88, 769.80 280.41, 773.48 280.45 C 777.17 280.50, 779.53 280.18, 784.06 278.94 C 788.60 277.70, 791.33 276.78, 796.16 274.25 C 800.98 271.71, 803.67 270.06, 808.20 266.27 C 812.72 262.49, 814.94 260.03, 818.76 255.32 C 822.58 250.61, 824.42 247.82, 827.28 242.72 C 830.15 237.61, 831.37 234.63, 833.08 229.79 C 834.79 224.95, 835.37 222.42, 835.81 218.50 C 836.25 214.57, 836.19 212.62, 835.28 210.17 C 834.37 207.71, 833.35 206.74, 831.26 206.22 C 829.17 205.70, 827.49 205.79, 824.84 207.57 C 822.18 209.34, 820.71 211.12, 817.98 215.09 C 815.25 219.05, 813.74 221.65, 811.17 227.39 C 808.61 233.12, 807.08 236.76, 805.18 243.77 C 803.27 250.78, 802.41 255.04, 801.64 262.46 C 800.86 269.87, 800.78 274.03, 801.30 280.83 C 801.82 287.63, 802.49 291.11, 804.24 296.47 C 806.00 301.83, 807.37 304.24, 810.09 307.62 C 812.81 311.00, 814.57 312.26, 817.85 313.36 C 821.14 314.46, 823.20 314.33, 826.51 313.14 C 829.83 311.95, 831.51 310.49, 834.44 307.40 C 837.36 304.30, 838.70 301.92, 841.11 297.67 C 843.53 293.42, 844.74 290.35, 846.51 286.15 C 848.28 281.96, 849.29 279.38, 849.97 276.72 C 850.64 274.06, 850.19 273.04, 849.88 272.86 C 849.57 272.68, 848.82 273.55, 848.41 275.84 C 848.00 278.12, 847.75 280.43, 847.85 284.28 C 847.95 288.13, 848.15 291.03, 848.90 295.08 C 849.66 299.14, 850.06 301.46, 851.61 304.56 C 853.16 307.66, 854.30 309.06, 856.64 310.61 C 858.99 312.15, 860.55 312.59, 863.35 312.30 C 866.14 312.00, 867.81 311.24, 870.61 309.13 C 873.41 307.02, 874.81 305.19, 877.35 301.77 C 879.89 298.34, 881.15 295.82, 883.30 292.01 C 885.46 288.19, 886.79 285.76, 888.14 282.68 C 889.49 279.59, 889.85 277.84, 890.06 276.58 C 890.27 275.33, 889.67 275.20, 889.18 276.40 C 888.70 277.60, 888.06 279.40, 887.62 282.59 C 887.17 285.77, 886.97 288.48, 886.97 292.32 C 886.97 296.16, 886.92 298.61, 887.62 301.80 C 888.31 304.99, 888.94 306.59, 890.44 308.29 C 891.94 309.99, 893.00 310.36, 895.13 310.30 C 897.27 310.24, 898.70 309.74, 901.12 307.99 C 903.54 306.24, 904.79 304.53, 907.23 301.54 C 909.67 298.55, 910.94 296.36, 913.32 293.03 C 915.70 289.70, 917.17 287.47, 919.15 284.87 C 921.13 282.27, 921.99 280.94, 923.21 280.04 C 924.43 279.13, 924.65 279.20, 925.23 280.36 C 925.80 281.51, 925.79 282.93, 926.09 285.81 C 926.39 288.70, 926.55 291.22, 926.73 294.78 C 926.91 298.35, 926.48 300.73, 926.98 303.64 C 927.48 306.56, 928.03 308.16, 929.23 309.37 C 930.44 310.58, 931.29 310.72, 933.01 309.69 C 934.73 308.65, 935.74 307.12, 937.85 304.19 C 939.96 301.27, 941.15 298.81, 943.55 295.08 C 945.95 291.34, 947.45 288.76, 949.85 285.51 C 952.26 282.26, 953.78 280.62, 955.57 278.82 C 957.36 277.02, 957.84 276.40, 958.81 276.51 C 959.78 276.61, 959.84 277.37, 960.42 279.36 C 961.00 281.35, 961.18 283.25, 961.71 286.45 C 962.23 289.65, 962.42 291.91, 963.03 295.36 C 963.64 298.81, 963.65 301.04, 964.75 303.70 C 965.85 306.36, 966.79 307.59, 968.53 308.65 C 970.27 309.71, 971.33 309.87, 973.45 308.99 C 975.58 308.12, 976.88 306.98, 979.16 304.30 C 981.43 301.61, 982.51 299.36, 984.82 295.58 C 987.13 291.80, 988.52 289.01, 990.71 285.39 C 992.89 281.77, 994.21 279.78, 995.74 277.49 C 997.27 275.20, 997.66 274.21, 998.37 273.94 C 999.09 273.67, 999.06 274.24, 999.31 276.14 C 999.55 278.03, 999.52 279.95, 999.59 283.42 C 999.66 286.88, 999.59 289.52, 999.66 293.47 C 999.73 297.43, 999.57 299.91, 999.96 303.18 C 1000.35 306.45, 1000.56 308.19, 1001.60 309.84 C 1002.64 311.49, 1003.49 311.96, 1005.15 311.43 C 1006.81 310.89, 1007.98 309.76, 1009.89 307.15 C 1011.79 304.54, 1012.65 302.24, 1014.68 298.38 C 1016.71 294.51, 1017.97 291.71, 1020.02 287.81 C 1022.08 283.91, 1023.37 281.63, 1024.95 278.88 C 1026.54 276.13, 1027.13 275.01, 1027.95 274.04 C 1028.77 273.07, 1028.84 272.99, 1029.06 274.04 C 1029.28 275.08, 1028.94 276.40, 1029.05 279.27 C 1029.16 282.15, 1029.29 284.54, 1029.61 288.40 C 1029.94 292.26, 1030.03 294.82, 1030.68 298.59 C 1031.33 302.37, 1031.49 304.42, 1032.84 307.28 C 1034.20 310.14, 1035.11 311.55, 1037.45 312.91 C 1039.79 314.27, 1041.50 314.69, 1044.55 314.10 C 1047.60 313.50, 1049.34 312.34, 1052.70 309.93 C 1056.06 307.53, 1057.90 305.67, 1061.36 302.08 C 1064.83 298.49, 1066.67 296.02, 1070.04 291.99 C 1073.41 287.96, 1075.27 285.47, 1078.20 281.93 C 1081.13 278.39, 1082.89 276.73, 1084.70 274.30 C 1086.50 271.87, 1086.96 270.74, 1087.23 269.77 C 1087.51 268.81, 1087.09 268.69, 1086.07 269.46 C 1085.04 270.24, 1083.83 271.14, 1082.12 273.65 C 1080.41 276.17, 1079.30 278.29, 1077.52 282.04 C 1075.73 285.78, 1074.70 288.35, 1073.21 292.37 C 1071.72 296.40, 1070.82 298.67, 1070.08 302.17 C 1069.34 305.67, 1069.04 307.53, 1069.51 309.86 C 1069.98 312.20, 1070.84 313.20, 1072.45 313.84 C 1074.06 314.48, 1075.38 314.36, 1077.56 313.05 C 1079.74 311.74, 1081.13 310.30, 1083.34 307.30 C 1085.54 304.31, 1086.71 301.99, 1088.59 298.09 C 1090.46 294.19, 1091.45 291.58, 1092.73 287.80 C 1094.02 284.02, 1094.84 281.98, 1095.02 279.20 C 1095.19 276.42, 1094.55 275.06, 1093.59 273.91 C 1092.63 272.76, 1091.58 272.73, 1090.20 273.45 C 1088.82 274.17, 1087.70 275.32, 1086.71 277.50 C 1085.71 279.69, 1085.11 281.46, 1085.21 284.38 C 1085.31 287.30, 1085.81 289.26, 1087.20 292.10 C 1088.59 294.93, 1089.55 296.58, 1092.14 298.56 C 1094.73 300.54, 1096.46 301.34, 1100.13 302.00 C 1103.80 302.66, 1106.16 302.53, 1110.51 301.88 C 1114.86 301.24, 1117.61 300.34, 1121.89 298.77 C 1126.17 297.19, 1128.69 295.87, 1131.91 294.00 C 1135.14 292.13, 1136.94 290.56, 1138.02 289.42 C 1139.09 288.28, 1138.75 287.81, 1137.29 288.28 C 1135.83 288.75, 1133.98 290.18, 1130.72 291.78 C 1127.46 293.39, 1125.11 294.80, 1120.99 296.30 C 1116.87 297.80, 1114.20 298.70, 1110.13 299.27 C 1106.07 299.85, 1103.86 299.84, 1100.67 299.19 C 1097.48 298.54, 1096.19 297.76, 1094.18 296.04 C 1092.18 294.31, 1091.57 292.92, 1090.64 290.56 C 1089.71 288.20, 1089.58 286.61, 1089.52 284.26 C 1089.47 281.90, 1089.96 280.63, 1090.36 278.77 C 1090.76 276.90, 1091.15 275.76, 1091.52 274.94 C 1091.88 274.11, 1092.13 273.88, 1092.19 274.65 C 1092.25 275.43, 1092.27 276.37, 1091.82 278.81 C 1091.36 281.25, 1091.10 283.27, 1089.91 286.86 C 1088.72 290.44, 1087.74 293.07, 1085.88 296.75 C 1084.01 300.44, 1082.62 302.52, 1080.59 305.28 C 1078.56 308.04, 1077.25 309.16, 1075.74 310.56 C 1074.22 311.95, 1073.74 312.44, 1073.02 312.25 C 1072.29 312.05, 1072.11 311.46, 1072.12 309.57 C 1072.12 307.69, 1072.27 306.06, 1073.03 302.83 C 1073.79 299.59, 1074.40 297.25, 1075.91 293.40 C 1077.42 289.55, 1078.65 287.12, 1080.56 283.58 C 1082.48 280.04, 1084.08 278.34, 1085.49 275.69 C 1086.90 273.04, 1087.45 271.69, 1087.62 270.33 C 1087.78 268.97, 1087.38 268.49, 1086.33 268.91 C 1085.28 269.33, 1084.36 270.11, 1082.36 272.42 C 1080.36 274.73, 1079.15 276.81, 1076.34 280.44 C 1073.54 284.07, 1071.66 286.57, 1068.33 290.56 C 1064.99 294.55, 1063.09 296.97, 1059.65 300.40 C 1056.22 303.82, 1054.28 305.54, 1051.13 307.69 C 1047.98 309.83, 1046.38 310.52, 1043.91 311.11 C 1041.44 311.71, 1040.43 311.68, 1038.79 310.66 C 1037.14 309.65, 1036.69 308.55, 1035.69 306.04 C 1034.69 303.52, 1034.31 301.68, 1033.79 298.10 C 1033.27 294.53, 1033.30 292.01, 1033.10 288.16 C 1032.90 284.32, 1033.28 281.90, 1032.78 278.89 C 1032.28 275.87, 1031.79 274.37, 1030.61 273.10 C 1029.42 271.82, 1028.50 271.68, 1026.84 272.51 C 1025.18 273.33, 1024.19 274.45, 1022.32 277.24 C 1020.45 280.03, 1019.57 282.54, 1017.49 286.47 C 1015.42 290.40, 1014.03 293.13, 1011.93 296.89 C 1009.84 300.65, 1008.53 302.66, 1007.00 305.26 C 1005.48 307.86, 1004.99 309.13, 1004.30 309.89 C 1003.62 310.65, 1003.76 310.44, 1003.58 309.05 C 1003.40 307.65, 1003.52 306.04, 1003.41 302.91 C 1003.30 299.78, 1003.10 297.34, 1003.03 293.41 C 1002.97 289.48, 1003.33 286.87, 1003.10 283.26 C 1002.86 279.65, 1002.83 277.52, 1001.85 275.37 C 1000.87 273.21, 999.90 272.44, 998.18 272.48 C 996.46 272.52, 995.24 273.29, 993.25 275.57 C 991.26 277.86, 990.41 280.22, 988.22 283.90 C 986.03 287.59, 984.61 290.34, 982.28 294.00 C 979.96 297.65, 978.59 299.65, 976.59 302.19 C 974.58 304.74, 973.62 305.78, 972.27 306.72 C 970.91 307.66, 970.64 307.75, 969.81 306.91 C 968.98 306.08, 968.75 304.98, 968.11 302.55 C 967.48 300.12, 967.18 298.10, 966.62 294.75 C 966.07 291.39, 966.05 289.08, 965.35 285.76 C 964.65 282.45, 964.38 280.38, 963.12 278.18 C 961.86 275.98, 960.98 275.10, 959.07 274.77 C 957.16 274.45, 955.88 274.75, 953.57 276.55 C 951.26 278.35, 950.04 280.41, 947.52 283.77 C 945.00 287.14, 943.46 289.68, 940.97 293.38 C 938.48 297.08, 936.95 299.36, 935.06 302.28 C 933.17 305.21, 932.40 306.76, 931.53 307.99 C 930.66 309.23, 930.83 309.40, 930.70 308.46 C 930.58 307.52, 930.93 306.05, 930.90 303.27 C 930.86 300.49, 930.76 298.18, 930.52 294.56 C 930.28 290.94, 930.43 288.29, 929.70 285.19 C 928.96 282.09, 928.35 280.48, 926.85 279.05 C 925.35 277.62, 924.23 277.29, 922.20 278.05 C 920.16 278.81, 918.93 280.21, 916.66 282.85 C 914.39 285.49, 913.24 287.94, 910.85 291.26 C 908.47 294.58, 907.13 296.67, 904.74 299.45 C 902.34 302.23, 900.86 303.44, 898.89 305.16 C 896.91 306.87, 896.17 307.68, 894.87 308.01 C 893.58 308.35, 893.17 308.19, 892.41 306.84 C 891.66 305.48, 891.42 304.12, 891.11 301.22 C 890.80 298.33, 890.78 296.03, 890.85 292.36 C 890.93 288.69, 891.47 286.07, 891.49 282.87 C 891.51 279.66, 891.51 277.77, 890.94 276.34 C 890.37 274.91, 889.78 274.73, 888.63 275.72 C 887.48 276.70, 886.75 278.28, 885.19 281.26 C 883.63 284.25, 882.87 286.89, 880.85 290.65 C 878.83 294.41, 877.50 296.86, 875.08 300.07 C 872.66 303.28, 871.17 304.81, 868.75 306.70 C 866.33 308.58, 865.10 309.17, 862.99 309.49 C 860.88 309.82, 859.93 309.58, 858.20 308.34 C 856.47 307.09, 855.57 306.03, 854.35 303.27 C 853.13 300.51, 852.69 298.36, 852.10 294.54 C 851.51 290.72, 851.56 287.89, 851.40 284.16 C 851.24 280.43, 851.61 278.21, 851.29 275.89 C 850.97 273.57, 850.63 272.59, 849.80 272.55 C 848.97 272.52, 848.28 273.20, 847.13 275.72 C 845.98 278.24, 845.67 281.00, 844.04 285.15 C 842.41 289.30, 841.26 292.36, 838.97 296.47 C 836.69 300.57, 835.28 302.82, 832.61 305.69 C 829.94 308.55, 828.44 309.69, 825.63 310.78 C 822.82 311.87, 821.37 312.04, 818.57 311.15 C 815.77 310.27, 814.17 309.40, 811.63 306.36 C 809.09 303.31, 807.61 301.06, 805.85 295.93 C 804.09 290.80, 803.37 287.37, 802.82 280.71 C 802.28 274.05, 802.34 269.92, 803.13 262.61 C 803.91 255.31, 804.77 251.09, 806.73 244.20 C 808.68 237.32, 810.27 233.73, 812.92 228.19 C 815.57 222.66, 817.24 220.16, 819.98 216.53 C 822.71 212.89, 824.42 211.70, 826.59 210.03 C 828.77 208.35, 829.59 207.97, 830.86 208.15 C 832.13 208.32, 832.44 208.89, 832.96 210.91 C 833.48 212.93, 833.80 214.60, 833.45 218.25 C 833.10 221.90, 832.75 224.43, 831.20 229.15 C 829.65 233.87, 828.47 236.83, 825.71 241.84 C 822.94 246.85, 821.13 249.61, 817.39 254.21 C 813.65 258.81, 811.44 261.20, 807.01 264.84 C 802.57 268.47, 799.91 270.05, 795.20 272.37 C 790.49 274.69, 787.77 275.50, 783.44 276.45 C 779.12 277.41, 776.88 277.32, 773.59 277.15 C 770.29 276.98, 768.88 276.25, 766.97 275.61 C 765.06 274.96, 764.43 274.58, 764.04 273.92 C 763.65 273.26, 764.00 272.74, 765.03 272.31 C 766.06 271.87, 767.11 271.46, 769.18 271.77 C 771.25 272.07, 772.89 272.36, 775.36 273.82 C 777.84 275.29, 779.54 276.48, 781.55 279.09 C 783.56 281.71, 784.56 283.50, 785.39 286.89 C 786.23 290.28, 786.31 292.49, 785.72 296.05 C 785.12 299.62, 784.34 301.63, 782.41 304.71 C 780.48 307.78, 778.94 309.35, 776.07 311.44 C 773.19 313.53, 771.27 314.36, 768.03 315.15 C 764.79 315.94, 762.83 315.97, 759.86 315.40 C 756.89 314.82, 755.35 314.10, 753.19 312.29 C 751.03 310.48, 750.14 309.12, 749.05 306.34 C 747.96 303.57, 747.71 301.61, 747.74 298.42 C 747.77 295.22, 748.24 293.25, 749.19 290.36 C 750.15 287.46, 750.99 286.05, 752.50 283.95 C 754.01 281.85, 755.07 281.16, 756.73 279.87 C 758.39 278.58, 759.46 278.30, 760.80 277.50 C 762.15 276.70, 762.76 276.41, 763.46 275.87 C 764.15 275.33, 764.55 275.03, 764.27 274.79 C 763.99 274.54, 763.65 274.35, 762.07 274.66 C 760.49 274.97, 759.27 275.37, 756.36 276.32 C 753.46 277.26, 751.57 278.04, 747.54 279.37 C 743.52 280.70, 741.15 281.33, 736.23 282.96 C 731.32 284.60, 728.32 285.47, 722.95 287.54 C 717.57 289.62, 714.51 290.85, 709.35 293.34 C 704.19 295.84, 701.66 297.27, 697.16 300.04 C 692.65 302.81, 690.35 304.28, 686.83 307.20 C 683.32 310.12, 681.60 311.69, 679.58 314.64 C 677.56 317.58, 677.01 319.20, 676.73 321.91 C 676.46 324.62, 676.77 326.07, 678.21 328.19 C 679.65 330.31, 680.92 331.38, 683.95 332.50 C 686.98 333.61, 689.22 333.81, 693.35 333.77 C 697.47 333.73, 700.07 333.34, 704.59 332.30 C 709.11 331.26, 711.78 330.47, 715.93 328.55 C 720.09 326.63, 722.26 325.35, 725.36 322.69 C 728.45 320.03, 730.01 318.48, 731.41 315.23 C 732.82 311.97, 732.91 310.05, 732.39 306.41 C 731.87 302.78, 730.99 300.91, 728.83 297.04 C 726.66 293.18, 725.01 291.18, 721.56 287.07 C 718.11 282.96, 715.77 280.74, 711.57 276.49 C 707.38 272.23, 704.82 270.15, 700.58 265.79 C 696.34 261.44, 694.00 259.22, 690.37 254.71 C 686.74 250.20, 684.90 247.83, 682.44 243.25 C 679.98 238.67, 679.00 236.41, 678.08 231.81 C 677.16 227.20, 677.12 224.78, 677.82 220.23 C 678.52 215.69, 679.37 213.30, 681.60 209.08 C 683.83 204.87, 685.65 202.68, 688.96 199.16 C 692.27 195.63, 694.44 193.87, 698.16 191.46 C 701.89 189.04, 704.09 188.07, 707.58 187.06 C 711.07 186.05, 712.78 186.09, 715.60 186.41 C 718.43 186.73, 719.67 187.51, 721.72 188.66 C 723.76 189.82, 724.49 190.82, 725.82 192.17 C 727.15 193.53, 727.50 194.33, 728.37 195.45 C 729.24 196.56, 729.51 197.40, 730.15 197.76 C 730.79 198.11, 731.36 197.99, 731.58 197.22" style="stroke: black; fill: black;"/></svg>