<svg xmlns="http://www.w3.org/2000/svg" id="canvas" viewBox="280.691 159.765 829.997 231.183"><path d="M 286.30,272.64 C 287.47 272.00, 288.72 270.84, 290.29 268.29 C 291.85 265.74, 292.33 263.92, 294.12 259.91 C 295.91 255.90, 297.03 253.30, 299.23 248.25 C 301.43 243.19, 302.64 240.35, 305.12 234.64 C 307.59 228.94, 308.96 225.71, 311.58 219.71 C 314.20 213.71, 315.63 210.40, 318.21 204.64 C 320.78 198.88, 322.11 195.83, 324.45 190.91 C 326.80 185.98, 328.12 183.56, 329.95 180.01 C 331.77 176.45, 332.74 174.77, 333.58 173.13 C 334.42 171.50, 333.92 170.87, 334.16 171.83 C 334.39 172.80, 334.42 173.89, 334.75 177.95 C 335.07 182.01, 335.51 184.95, 335.77 192.14 C 336.03 199.33, 336.07 204.02, 336.04 213.90 C 336.01 223.79, 335.87 229.80, 335.62 241.57 C 335.37 253.35, 335.11 260.15, 334.78 272.77 C 334.45 285.39, 334.26 292.37, 333.98 304.66 C 333.69 316.95, 333.56 323.43, 333.36 334.22 C 333.16 345.00, 333.09 350.31, 332.96 358.57 C 332.83 366.84, 332.76 370.36, 332.70 375.54 C 332.64 380.71, 332.51 382.06, 332.65 384.45 C 332.80 386.84, 333.11 386.88, 333.44 387.49 C 333.76 388.10, 333.95 388.10, 334.27 387.49 C 334.59 386.88, 334.89 386.83, 335.02 384.44 C 335.15 382.05, 335.00 380.70, 334.92 375.53 C 334.84 370.36, 334.64 366.84, 334.61 358.58 C 334.57 350.33, 334.61 345.02, 334.73 334.24 C 334.86 323.46, 334.98 316.97, 335.25 304.69 C 335.52 292.40, 335.71 285.42, 336.08 272.81 C 336.44 260.19, 336.72 253.39, 337.07 241.61 C 337.43 229.83, 337.61 223.83, 337.85 213.93 C 338.09 204.03, 338.22 199.37, 338.29 192.10 C 338.35 184.84, 338.65 181.91, 338.16 177.62 C 337.67 173.32, 337.21 171.91, 335.83 170.63 C 334.44 169.35, 333.01 169.64, 331.24 171.21 C 329.46 172.79, 328.79 174.77, 326.94 178.49 C 325.09 182.20, 324.19 184.75, 322.00 189.78 C 319.80 194.82, 318.49 197.86, 315.96 203.65 C 313.43 209.44, 312.00 212.75, 309.34 218.73 C 306.69 224.71, 305.29 227.92, 302.69 233.56 C 300.10 239.20, 298.78 241.99, 296.37 246.93 C 293.96 251.87, 292.66 254.40, 290.66 258.24 C 288.66 262.09, 287.62 263.53, 286.38 266.18 C 285.13 268.83, 284.45 270.21, 284.43 271.50 C 284.42 272.79, 285.13 273.29, 286.30 272.64" style="stroke: black; fill: black;"/><path d="M 284.25,311.37 C 285.10 312.10, 285.93 312.87, 288.66 313.11 C 291.40 313.36, 293.37 313.07, 297.93 312.60 C 302.49 312.12, 305.52 311.93, 311.46 310.73 C 317.40 309.53, 321.04 308.78, 327.63 306.60 C 334.21 304.42, 337.87 303.13, 344.39 299.82 C 350.91 296.51, 354.35 294.56, 360.24 290.04 C 366.13 285.52, 368.99 282.93, 373.84 277.21 C 378.69 271.49, 380.92 268.12, 384.48 261.45 C 388.04 254.78, 389.49 250.85, 391.62 243.84 C 393.75 236.84, 394.42 232.80, 395.14 226.41 C 395.86 220.02, 395.87 216.65, 395.21 211.90 C 394.56 207.15, 393.89 204.79, 391.87 202.68 C 389.84 200.57, 387.66 200.01, 385.10 201.33 C 382.53 202.65, 381.17 204.51, 379.05 209.29 C 376.93 214.07, 375.96 217.46, 374.51 225.24 C 373.06 233.02, 372.41 238.12, 371.80 248.19 C 371.19 258.27, 371.04 264.51, 371.44 275.63 C 371.84 286.75, 372.30 293.14, 373.79 303.81 C 375.29 314.49, 376.37 320.17, 378.93 329.00 C 381.48 337.82, 383.08 341.97, 386.58 347.95 C 390.07 353.94, 392.15 356.24, 396.39 358.92 C 400.63 361.61, 403.29 362.03, 407.77 361.37 C 412.25 360.71, 414.81 359.16, 418.79 355.62 C 422.77 352.08, 424.76 349.17, 427.66 343.68 C 430.57 338.19, 431.84 334.44, 433.33 328.18 C 434.82 321.92, 435.26 318.19, 435.11 312.37 C 434.96 306.56, 434.33 303.53, 432.59 299.09 C 430.85 294.65, 429.26 292.80, 426.41 290.17 C 423.55 287.54, 421.49 286.68, 418.33 285.94 C 415.18 285.21, 413.03 285.56, 410.63 286.49 C 408.22 287.42, 406.93 288.72, 406.31 290.60 C 405.69 292.48, 405.89 294.25, 407.53 295.89 C 409.17 297.52, 410.89 298.42, 414.52 298.79 C 418.15 299.15, 420.63 298.76, 425.68 297.72 C 430.74 296.69, 433.86 295.75, 439.80 293.61 C 445.74 291.46, 449.25 289.83, 455.39 286.99 C 461.53 284.15, 464.95 282.24, 470.48 279.39 C 476.01 276.53, 478.92 274.87, 483.03 272.71 C 487.14 270.54, 489.09 269.78, 491.05 268.56 C 493.01 267.35, 493.11 266.55, 492.82 266.64 C 492.54 266.72, 491.25 266.86, 489.63 268.99 C 488.01 271.12, 486.98 273.11, 484.74 277.31 C 482.50 281.51, 480.86 284.31, 478.41 289.99 C 475.97 295.66, 474.41 299.24, 472.51 305.68 C 470.61 312.13, 469.64 315.96, 468.92 322.21 C 468.20 328.45, 468.12 331.83, 468.91 336.92 C 469.69 342.02, 470.48 344.56, 472.84 347.70 C 475.21 350.83, 477.24 352.13, 480.75 352.60 C 484.26 353.07, 486.69 352.34, 490.41 350.04 C 494.14 347.73, 496.20 345.64, 499.39 341.08 C 502.59 336.52, 504.26 333.30, 506.40 327.24 C 508.53 321.17, 509.46 317.29, 510.09 310.74 C 510.71 304.19, 510.54 300.41, 509.54 294.48 C 508.53 288.55, 507.40 285.53, 505.08 281.11 C 502.76 276.69, 500.93 274.84, 497.93 272.36 C 494.92 269.87, 492.84 269.11, 490.07 268.70 C 487.29 268.29, 485.49 269.02, 484.05 270.31 C 482.61 271.59, 482.10 273.25, 482.87 275.14 C 483.65 277.03, 484.88 278.64, 487.94 279.75 C 491.00 280.87, 493.45 280.82, 498.16 280.70 C 502.88 280.57, 505.87 280.21, 511.52 279.13 C 517.17 278.04, 520.55 277.07, 526.41 275.26 C 532.27 273.45, 535.57 272.03, 540.82 270.07 C 546.06 268.12, 548.99 266.79, 552.64 265.49 C 556.29 264.19, 557.65 263.39, 559.08 263.56 C 560.51 263.73, 559.94 263.87, 559.78 266.35 C 559.62 268.83, 559.30 271.01, 558.30 275.97 C 557.29 280.93, 556.11 284.62, 554.75 291.14 C 553.39 297.66, 552.38 301.91, 551.50 308.57 C 550.61 315.23, 550.18 318.90, 550.34 324.44 C 550.50 329.98, 550.63 332.73, 552.28 336.26 C 553.92 339.80, 555.49 341.39, 558.56 342.12 C 561.64 342.86, 563.87 342.17, 567.66 339.94 C 571.45 337.71, 573.51 335.60, 577.51 330.97 C 581.51 326.34, 583.78 322.88, 587.66 316.80 C 591.53 310.71, 593.74 306.34, 596.88 300.53 C 600.02 294.72, 601.73 291.28, 603.37 287.75 C 605.02 284.22, 604.96 282.86, 605.11 282.87 C 605.26 282.88, 604.43 284.13, 604.14 287.79 C 603.84 291.45, 603.60 295.13, 603.64 301.18 C 603.68 307.23, 603.58 311.72, 604.34 318.06 C 605.10 324.40, 605.58 328.01, 607.44 332.87 C 609.29 337.74, 610.45 340.26, 613.62 342.40 C 616.79 344.53, 619.18 345.01, 623.29 343.55 C 627.39 342.10, 629.63 340.25, 634.14 335.11 C 638.65 329.97, 641.12 326.29, 645.83 317.84 C 650.54 309.39, 653.12 303.90, 657.70 292.88 C 662.28 281.86, 664.64 275.10, 668.73 262.72 C 672.81 250.34, 674.82 243.13, 678.11 230.97 C 681.40 218.80, 682.84 212.24, 685.16 201.91 C 687.49 191.58, 688.37 186.56, 689.73 179.33 C 691.08 172.10, 691.90 168.90, 691.93 165.77 C 691.96 162.64, 690.66 161.97, 689.89 163.69 C 689.13 165.42, 688.80 167.91, 688.11 174.39 C 687.42 180.87, 687.07 185.80, 686.42 196.08 C 685.77 206.36, 685.37 213.20, 684.86 225.79 C 684.35 238.38, 684.07 245.94, 683.87 259.02 C 683.67 272.11, 683.63 279.36, 683.88 291.21 C 684.13 303.06, 684.36 309.10, 685.12 318.27 C 685.87 327.45, 686.34 331.78, 687.65 337.08 C 688.96 342.39, 690.08 344.27, 691.68 344.79 C 693.28 345.30, 694.88 343.70, 695.66 339.65 C 696.43 335.59, 696.31 331.67, 695.54 324.52 C 694.77 317.37, 693.90 312.12, 691.80 303.91 C 689.69 295.69, 688.05 290.64, 685.02 283.43 C 681.99 276.22, 679.93 272.77, 676.63 267.85 C 673.32 262.94, 671.39 261.07, 668.49 258.85 C 665.60 256.62, 663.74 256.48, 662.15 256.74 C 660.56 257.00, 659.71 258.55, 660.55 260.13 C 661.40 261.72, 662.73 263.22, 666.38 264.65 C 670.02 266.08, 672.94 266.65, 678.79 267.29 C 684.63 267.93, 688.41 268.12, 695.61 267.83 C 702.82 267.53, 707.11 267.04, 714.81 265.82 C 722.51 264.60, 726.84 263.53, 734.13 261.72 C 741.43 259.91, 745.20 258.60, 751.29 256.77 C 757.38 254.94, 760.37 253.97, 764.56 252.57 C 768.76 251.18, 770.11 250.76, 772.27 249.81 C 774.44 248.86, 774.84 248.43, 775.40 247.83 C 775.95 247.22, 775.86 246.92, 775.04 246.78 C 774.23 246.63, 773.62 246.50, 771.33 247.11 C 769.04 247.72, 767.76 248.33, 763.61 249.82 C 759.46 251.30, 756.59 252.57, 750.59 254.54 C 744.59 256.51, 740.84 257.84, 733.62 259.67 C 726.40 261.50, 722.10 262.55, 714.48 263.69 C 706.87 264.82, 702.60 265.28, 695.55 265.35 C 688.50 265.42, 684.78 264.99, 679.23 264.05 C 673.69 263.11, 671.23 261.78, 667.84 260.65 C 664.44 259.51, 663.45 258.80, 662.26 258.39 C 661.08 257.98, 661.05 258.00, 661.90 258.58 C 662.75 259.17, 663.97 259.19, 666.52 261.32 C 669.08 263.44, 671.37 264.62, 674.67 269.21 C 677.98 273.80, 680.07 277.21, 683.05 284.26 C 686.03 291.31, 687.58 296.36, 689.56 304.47 C 691.54 312.57, 692.26 317.82, 692.94 324.79 C 693.62 331.76, 693.12 335.53, 692.96 339.33 C 692.80 343.13, 692.82 344.32, 692.15 343.78 C 691.48 343.24, 690.71 341.76, 689.61 336.63 C 688.51 331.50, 687.54 327.23, 686.65 318.13 C 685.77 309.04, 685.49 302.99, 685.18 291.18 C 684.88 279.36, 684.92 272.11, 685.15 259.04 C 685.37 245.98, 685.67 238.42, 686.31 225.86 C 686.94 213.29, 687.48 206.46, 688.31 196.22 C 689.14 185.98, 689.82 181.08, 690.47 174.63 C 691.11 168.18, 691.71 165.80, 691.54 163.97 C 691.37 162.14, 690.34 162.48, 689.62 165.49 C 688.90 168.50, 689.10 171.80, 687.94 179.02 C 686.77 186.24, 686.01 191.29, 683.80 201.61 C 681.59 211.93, 680.15 218.50, 676.89 230.64 C 673.63 242.78, 671.61 249.98, 667.50 262.32 C 663.40 274.65, 661.01 281.39, 656.36 292.31 C 651.71 303.24, 649.04 308.69, 644.26 316.95 C 639.47 325.20, 636.81 328.77, 632.43 333.58 C 628.05 338.39, 625.78 339.70, 622.35 340.99 C 618.92 342.28, 617.73 341.85, 615.29 340.03 C 612.85 338.21, 611.73 336.34, 610.14 331.88 C 608.56 327.41, 607.99 323.86, 607.35 317.72 C 606.71 311.58, 606.92 307.16, 606.94 301.17 C 606.96 295.19, 607.79 291.61, 607.46 287.78 C 607.13 283.94, 606.63 282.31, 605.28 282.01 C 603.94 281.72, 602.88 282.85, 600.73 286.31 C 598.57 289.76, 597.56 293.45, 594.51 299.27 C 591.46 305.09, 589.31 309.44, 585.48 315.40 C 581.64 321.36, 579.25 324.72, 575.35 329.07 C 571.46 333.42, 569.21 335.18, 565.99 337.16 C 562.77 339.15, 561.44 339.42, 559.26 338.99 C 557.07 338.56, 556.32 337.94, 555.08 335.01 C 553.84 332.08, 553.27 329.57, 553.07 324.35 C 552.87 319.13, 553.18 315.44, 554.08 308.92 C 554.99 302.40, 556.08 298.21, 557.58 291.76 C 559.07 285.31, 560.38 281.78, 561.55 276.67 C 562.72 271.57, 563.79 269.33, 563.43 266.21 C 563.06 263.09, 562.07 261.85, 559.70 261.07 C 557.33 260.29, 555.56 261.06, 551.58 262.33 C 547.59 263.59, 544.98 265.33, 539.78 267.38 C 534.59 269.43, 531.35 270.85, 525.60 272.58 C 519.84 274.31, 516.46 275.20, 510.99 276.03 C 505.51 276.85, 502.51 276.95, 498.21 276.72 C 493.90 276.49, 492.03 275.53, 489.47 274.88 C 486.90 274.23, 486.17 273.92, 485.39 273.47 C 484.60 273.02, 484.76 272.77, 485.55 272.61 C 486.34 272.45, 487.27 272.17, 489.32 272.67 C 491.36 273.16, 493.13 273.13, 495.78 275.09 C 498.43 277.05, 500.33 278.51, 502.57 282.47 C 504.82 286.44, 506.01 289.31, 507.01 294.92 C 508.02 300.52, 508.21 304.21, 507.59 310.50 C 506.96 316.78, 506.00 320.56, 503.87 326.32 C 501.74 332.09, 499.97 335.14, 496.92 339.31 C 493.88 343.48, 491.79 345.20, 488.64 347.18 C 485.48 349.17, 483.81 349.49, 481.16 349.22 C 478.50 348.94, 477.26 348.36, 475.35 345.81 C 473.45 343.26, 472.43 341.15, 471.65 336.48 C 470.87 331.82, 470.78 328.50, 471.45 322.49 C 472.11 316.48, 473.04 312.68, 474.98 306.43 C 476.92 300.18, 478.53 296.68, 481.16 291.24 C 483.79 285.80, 485.64 283.24, 488.11 279.25 C 490.58 275.25, 492.38 273.87, 493.53 271.27 C 494.68 268.66, 494.61 267.39, 493.84 266.24 C 493.07 265.08, 492.14 264.74, 489.68 265.49 C 487.22 266.25, 485.64 267.69, 481.56 270.02 C 477.48 272.34, 474.72 274.17, 469.28 277.11 C 463.84 280.04, 460.42 281.93, 454.34 284.69 C 448.26 287.46, 444.73 289.03, 438.88 290.93 C 433.03 292.84, 429.87 293.57, 425.09 294.21 C 420.30 294.85, 418.03 294.39, 414.95 294.13 C 411.88 293.87, 410.92 293.40, 409.72 292.93 C 408.52 292.46, 408.52 292.26, 408.96 291.79 C 409.39 291.33, 410.19 290.93, 411.88 290.61 C 413.58 290.29, 415.00 289.76, 417.45 290.19 C 419.90 290.63, 421.66 290.77, 424.15 292.77 C 426.64 294.77, 428.22 296.26, 429.88 300.19 C 431.54 304.13, 432.27 306.98, 432.45 312.45 C 432.64 317.93, 432.23 321.58, 430.80 327.57 C 429.37 333.57, 428.06 337.22, 425.29 342.42 C 422.52 347.62, 420.54 350.31, 416.96 353.59 C 413.37 356.87, 411.24 358.14, 407.36 358.82 C 403.49 359.51, 401.41 359.39, 397.57 357.03 C 393.73 354.66, 391.60 352.70, 388.18 347.00 C 384.75 341.31, 383.04 337.23, 380.45 328.55 C 377.87 319.87, 376.76 314.20, 375.26 303.61 C 373.76 293.01, 373.31 286.64, 372.97 275.58 C 372.63 264.52, 372.81 258.29, 373.57 248.31 C 374.32 238.34, 375.11 233.26, 376.74 225.69 C 378.38 218.13, 379.77 214.86, 381.74 210.50 C 383.72 206.13, 385.07 205.05, 386.63 203.86 C 388.20 202.68, 388.44 202.90, 389.59 204.58 C 390.74 206.27, 391.75 207.99, 392.39 212.30 C 393.03 216.62, 393.35 219.99, 392.80 226.17 C 392.24 232.36, 391.63 236.38, 389.61 243.24 C 387.59 250.11, 386.17 253.98, 382.71 260.51 C 379.26 267.05, 377.06 270.34, 372.32 275.92 C 367.58 281.50, 364.78 284.02, 359.00 288.41 C 353.22 292.81, 349.84 294.71, 343.42 297.88 C 337.00 301.05, 333.39 302.30, 326.89 304.27 C 320.39 306.25, 316.78 306.88, 310.93 307.78 C 305.09 308.67, 302.09 308.59, 297.65 308.75 C 293.22 308.92, 291.39 308.46, 288.75 308.60 C 286.11 308.73, 285.35 308.89, 284.45 309.44 C 283.55 310.00, 283.41 310.63, 284.25 311.37" style="stroke: black; fill: black;"/><path d="M 866.36,271.78 C 865.89 272.85, 865.88 273.79, 865.93 276.85 C 865.98 279.92, 866.41 281.96, 866.63 287.10 C 866.84 292.23, 866.93 295.83, 867.00 302.51 C 867.07 309.20, 866.97 313.59, 866.97 320.53 C 866.97 327.46, 866.83 331.51, 867.01 337.21 C 867.19 342.90, 866.89 345.83, 867.87 348.99 C 868.85 352.15, 870.12 353.30, 871.89 353.01 C 873.66 352.72, 874.82 351.40, 876.73 347.54 C 878.65 343.68, 879.38 340.22, 881.47 333.71 C 883.56 327.19, 884.78 322.52, 887.17 314.96 C 889.57 307.40, 890.99 302.70, 893.46 295.91 C 895.94 289.13, 897.43 285.55, 899.55 281.04 C 901.67 276.52, 902.89 274.85, 904.05 273.33 C 905.22 271.80, 904.84 271.81, 905.37 273.41 C 905.90 275.02, 906.14 276.96, 906.70 281.36 C 907.27 285.76, 907.58 289.34, 908.20 295.42 C 908.82 301.49, 909.08 305.60, 909.81 311.74 C 910.53 317.89, 910.74 321.33, 911.81 326.12 C 912.87 330.92, 913.22 333.36, 915.15 335.70 C 917.08 338.04, 918.86 338.63, 921.47 337.82 C 924.07 337.01, 925.48 335.39, 928.18 331.65 C 930.87 327.90, 932.17 324.74, 934.94 319.10 C 937.70 313.46, 939.27 309.50, 942.00 303.44 C 944.74 297.38, 946.39 293.45, 948.61 288.81 C 950.83 284.17, 952.05 282.03, 953.11 280.24 C 954.17 278.44, 953.56 278.27, 953.91 279.82 C 954.25 281.36, 954.33 283.43, 954.84 287.96 C 955.35 292.49, 955.49 296.27, 956.46 302.48 C 957.42 308.68, 957.87 312.83, 959.67 318.97 C 961.47 325.12, 962.51 328.54, 965.47 333.19 C 968.43 337.84, 970.27 340.02, 974.47 342.20 C 978.67 344.38, 981.35 344.81, 986.46 344.09 C 991.56 343.37, 994.56 342.06, 1000.00 338.59 C 1005.44 335.12, 1008.50 332.35, 1013.66 326.74 C 1018.82 321.12, 1021.62 317.24, 1025.79 310.51 C 1029.95 303.77, 1031.97 299.62, 1034.48 293.06 C 1036.99 286.50, 1037.89 282.94, 1038.35 277.70 C 1038.81 272.46, 1038.60 269.87, 1036.78 266.85 C 1034.96 263.83, 1032.76 262.62, 1029.23 262.59 C 1025.70 262.56, 1023.09 263.66, 1019.12 266.69 C 1015.16 269.73, 1012.76 272.28, 1009.41 277.74 C 1006.05 283.21, 1004.14 286.99, 1002.36 294.02 C 1000.57 301.04, 999.84 305.45, 1000.47 312.86 C 1001.10 320.28, 1001.86 324.66, 1005.51 331.11 C 1009.16 337.57, 1011.95 340.93, 1018.72 345.12 C 1025.50 349.31, 1030.05 350.90, 1039.38 352.06 C 1048.72 353.22, 1055.46 352.33, 1065.39 350.94 C 1075.33 349.56, 1081.03 347.55, 1089.05 345.12 C 1097.07 342.70, 1102.33 340.38, 1105.51 338.81 C 1108.68 337.24, 1108.31 336.34, 1104.92 337.28 C 1101.53 338.23, 1096.52 341.15, 1088.57 343.54 C 1080.62 345.93, 1074.95 347.88, 1065.16 349.25 C 1055.36 350.62, 1048.69 351.51, 1039.59 350.38 C 1030.50 349.25, 1026.14 347.65, 1019.67 343.61 C 1013.19 339.56, 1010.63 336.35, 1007.21 330.16 C 1003.79 323.98, 1003.09 319.81, 1002.57 312.70 C 1002.05 305.59, 1002.79 301.32, 1004.62 294.62 C 1006.45 287.92, 1008.45 284.29, 1011.73 279.20 C 1015.01 274.12, 1017.51 271.87, 1021.03 269.19 C 1024.54 266.51, 1026.67 266.00, 1029.30 265.83 C 1031.94 265.66, 1032.91 266.02, 1034.21 268.35 C 1035.51 270.68, 1036.16 272.71, 1035.80 277.49 C 1035.44 282.28, 1034.76 285.90, 1032.40 292.28 C 1030.03 298.66, 1028.06 302.80, 1023.98 309.39 C 1019.91 315.98, 1017.08 319.79, 1012.02 325.22 C 1006.96 330.65, 1003.88 333.27, 998.69 336.52 C 993.50 339.78, 990.68 340.83, 986.08 341.49 C 981.49 342.16, 979.38 341.78, 975.71 339.84 C 972.04 337.90, 970.39 336.10, 967.72 331.78 C 965.04 327.46, 963.94 324.17, 962.32 318.22 C 960.70 312.27, 960.42 308.17, 959.62 302.02 C 958.81 295.88, 959.02 292.17, 958.30 287.50 C 957.58 282.83, 957.49 280.50, 956.03 278.68 C 954.56 276.86, 953.01 276.62, 950.98 278.38 C 948.94 280.14, 948.16 282.71, 945.85 287.49 C 943.55 292.27, 942.17 296.23, 939.44 302.28 C 936.71 308.33, 935.02 312.25, 932.20 317.73 C 929.39 323.21, 927.72 326.20, 925.37 329.68 C 923.01 333.17, 921.92 334.33, 920.41 335.16 C 918.90 335.99, 918.91 335.77, 917.79 333.82 C 916.68 331.88, 915.86 329.92, 914.84 325.44 C 913.82 320.96, 913.39 317.48, 912.71 311.41 C 912.03 305.35, 911.93 301.23, 911.43 295.12 C 910.93 289.00, 910.98 285.45, 910.21 280.84 C 909.44 276.23, 909.16 273.94, 907.58 272.07 C 906.00 270.20, 904.38 269.90, 902.29 271.47 C 900.20 273.03, 899.31 275.17, 897.11 279.90 C 894.91 284.63, 893.73 288.27, 891.29 295.13 C 888.84 302.00, 887.40 306.69, 884.89 314.22 C 882.39 321.76, 881.01 326.41, 878.78 332.81 C 876.55 339.21, 875.21 342.45, 873.75 346.21 C 872.28 349.97, 872.00 351.16, 871.45 351.58 C 870.91 352.00, 871.36 351.21, 871.03 348.31 C 870.70 345.41, 870.10 342.64, 869.80 337.09 C 869.50 331.53, 869.53 327.44, 869.53 320.53 C 869.53 313.61, 869.71 309.22, 869.81 302.52 C 869.91 295.82, 869.99 292.23, 870.04 287.04 C 870.08 281.85, 870.36 279.69, 870.01 276.59 C 869.67 273.49, 869.04 272.50, 868.31 271.54 C 867.58 270.58, 866.84 270.72, 866.36 271.78" style="stroke: black; fill: black;"/></svg>