<svg xmlns="http://www.w3.org/2000/svg" xmlns:xlink="http://www.w3.org/1999/xlink" viewBox="0 0 853.49 906.3"><defs><style>.cls-1{fill:#ff9c7a;}.cls-2{fill:#fff;}.cls-3{isolation:isolate;}.cls-4{fill:#3b2409;}.cls-23,.cls-26,.cls-5{fill:none;}.cls-5{stroke:#3b2409;stroke-width:2px;}.cls-23,.cls-5{stroke-linecap:round;stroke-linejoin:round;}.cls-6{clip-path:url(#clip-path);}.cls-7{fill:#ff8357;}.cls-8{fill:#006837;}.cls-9{fill:#009245;}.cls-10{clip-path:url(#clip-path-2);}.cls-11{fill:#f381d4;opacity:0.3;mix-blend-mode:multiply;}.cls-12{fill:#ff6d55;}.cls-13{fill:#754c24;}.cls-14{fill:#ff4a61;}.cls-15{clip-path:url(#clip-path-3);}.cls-16{fill:#fffbd4;}.cls-17{fill:#b3b3b3;}.cls-18{fill:#ccc;}.cls-19{fill:#303d54;}.cls-20{clip-path:url(#clip-path-4);}.cls-21{fill:#39b54a;}.cls-22{fill:#3ba0b0;}.cls-23,.cls-26{stroke:#000;}.cls-23{stroke-width:1.09px;}.cls-24{fill:#fb9024;}.cls-25{fill:#f36615;}.cls-26{stroke-miterlimit:10;stroke-width:3px;}</style><clipPath id="clip-path"><path class="cls-1" d="M304.56,266.62,281,321.36l-27,12.87s26.15,35.47,59.46,49.68,54.39-27.2,54.39-27.2l-23.39-22.93,18.13-61.33Z"/></clipPath><clipPath id="clip-path-2"><path class="cls-1" d="M269.12,222.21s-4.11-10.85-10.91-13.49c-10.21-4-21.08-3.7-27.57-.38-9,4.62-12.5,16.83-8.91,26.31s12.87,16,22.75,18.29c7.81,1.79,16.5,1,23.37-2.91,0,0,34.44,53.22,86.87,49.09s85.93-44.57,62.45-112.46c-21.55-62.3-50.35-75-77.9-71.54s-50.26,15-59.93,44.24,11.05,58.44,5.71,64.71C279.34,230.8,269.12,222.21,269.12,222.21Z"/></clipPath><clipPath id="clip-path-3"><path class="cls-2" d="M268.9,323c-26.06,12.89-65.72,23-84.4,45.26-16.21,19.31-27.07,52.52-32.43,77.15-10.44,47.94-13.13,98.26,0,133.53,0,0,70.63,12.56,133.62-.75,66.65-14.08,73.41-22,73.41-22l-5.3-15.44s21.26-23.17,27.85-62.86l36.93-.85s2.62-44.87-13.53-74.86-23.62-35.05-38-48.59c0,0-6.88,18.95-44.73,16.14S268.9,323,268.9,323Z"/></clipPath><clipPath id="clip-path-4"><path class="cls-1" d="M789,733.71l-10.87,76.66L701.22,789l-25.16,81.85c17.79,4.6,80.67,6.4,114.42,5.69,0,0,33,15.24,51.44-16.41,9-15.51-1.45-56.35-1.45-56.35s25.68-55.26,4.91-87.9"/></clipPath></defs><g class="cls-3"><g id="Capa_2" data-name="Capa 2"><g id="Capa_1-2" data-name="Capa 1"><path class="cls-4" d="M373.37,135.31a66.47,66.47,0,0,0,37.55-54.75c3.58-40.71-40.74-21.71-40.74-21.71s10-30.58-11.45-41.22-38.8,21.57-38.8,21.57S332.63,3.11,303.13.15s-36.2,39.48-36.2,39.48S253.9,7.36,236.54,13s-24.36,40.16-24.36,40.16-13.77-18.89-34.61-7.74-15.39,37.15-15.39,37.15-25.93-18.65-41.9-1.71,8.78,46.74,8.78,46.74-30.4-1.65-35.6,21.41,20.89,37.58,20.89,37.58-29.06,17-25.61,40.86S134,249.86,134,249.86s-28.31,62.52,34.25,61.61c0,0,63.73,89.58,135.23,45.8S373.37,135.31,373.37,135.31Z"/><path class="cls-4" d="M206.15,286.13s16.68-80,.06-129.34c0,0,91.48-95.07,162.47-33.83,0,0-112.88-87.44-172.28-31.66S148.54,268.45,206.15,286.13Z"/><path class="cls-5" d="M111.33,156.84s-24-1.86-27.67,16.71,17.12,30.79,17.12,30.79S78.18,217.57,81.32,237s36,18.95,36,18.95"/><path class="cls-5" d="M393.69,52s7.78-24.33-9.27-32.92-30.57,17-30.57,17,9.86-28.71-13.49-31.23-28.43,31.3-28.43,31.3"/><path class="cls-1" d="M304.56,266.62,281,321.36l-27,12.87s26.15,35.47,59.46,49.68,54.39-27.2,54.39-27.2l-23.39-22.93,18.13-61.33Z"/><g class="cls-6"><path class="cls-7" d="M382,323c-1.84,0-3.68,0-5.5-.09,2.2-2.33,2.44-6.42-.42-8.41a4.87,4.87,0,0,0,1-2,5.75,5.75,0,0,0-.79-4.57c0-.11.08-.19.1-.3a6.07,6.07,0,0,0-.19-3.42c2.08-4.35-.76-8.43-4.82-10.18a170.6,170.6,0,0,0-19.27-6.9,312.89,312.89,0,0,0-37.22-8.26q-12.63-4.46-25.43-8.44a4.65,4.65,0,0,0-1.32-.2,2.79,2.79,0,0,1,.13-1c1.24-3.76-4.82-6.44-6.49-2.74s-.87,7.28.66,10.7a5.73,5.73,0,0,0,1,2.09c.23.44.46.88.7,1.32.15.26.3.51.44.77a5.8,5.8,0,0,0,2.46,4.18q1.8,2.91,3.77,5.71a114.64,114.64,0,0,0,8.11,10.14,112.23,112.23,0,0,0,8.71,8.74A114.55,114.55,0,0,0,328.42,325a96.85,96.85,0,0,0,24.4,9.95c10.62,2.54,21.83,2.5,31.71-2.57C389,330.1,386.87,322.87,382,323Z"/></g><path class="cls-7" d="M407.25,451.75c8.79,37.69,11,74.49,16.23,103.62,34.36,9.19,96.67,51,96.67,51L497,651.88s-77.45-23.51-123.94-51.21C337,560.86,341.29,496,347.84,470.19Z"/><path class="cls-1" d="M345.7,540.76l20.6,72.33-83.36,38.69L170.48,611s-12.48-33.81-7.8-72.66Z"/><path class="cls-8" d="M353.86,569.42s12.44,18.5,16.37,45.82c0,0,31.28,7.86,44.22,24.5,0,0,226.31-94.27,283.7-53.64s-9.07,140.47-9.07,140.47-52.34-11.39-127.28,3.55c0,0-42.59,29.23-145,50.28-17.39,3.58-5.81,58.25-28.49,63.49C244.06,877.27,183,837.52,157,783.92c-31.33-64.57,11.27-180.17,11.27-180.17S288.48,610.37,353.86,569.42Z"/><path class="cls-9" d="M174.38,649.82a41.15,41.15,0,0,0,14.15,4.49,42.61,42.61,0,0,0,14.84-1,43.43,43.43,0,0,0,22.85-14.41,34.92,34.92,0,0,0,4.09-6.19,14.78,14.78,0,0,0,1.19-3.3,12.35,12.35,0,0,0,.74-3.63.69.69,0,0,0-1.16-.49,12,12,0,0,0-1.5,2.05c-.63.93-1.42,1.72-2.07,2.63-1.14,1.61-2.25,3.19-3.48,4.73a44.08,44.08,0,0,1-8.65,8.28,41.17,41.17,0,0,1-24.68,7.57,45.76,45.76,0,0,1-15.47-2.71c-1.16-.44-1.95,1.45-.85,2Z"/><path class="cls-9" d="M189.41,650.42a40.73,40.73,0,0,0,2.11-7.36c.44-2.5.48-5.12,1-7.59l-2.06,1.17c2.24.89,5,1,7.36,1.21s5,.45,7.54.56,5,.15,7.56.06c2.31-.07,4.83.13,6.69-1.43a1.27,1.27,0,0,0-.25-2c-2-1.22-4.53-.69-6.73-.66-2.42,0-4.85.05-7.27,0s-4.64-.19-7-.38-5-.84-7.5-.65a1.7,1.7,0,0,0-1.68,1.67,49.37,49.37,0,0,1-.41,7.68c-.19,2.56-.21,5.06-.18,7.62a.37.37,0,0,0,.73.1Z"/><path class="cls-9" d="M306.66,601.43a9,9,0,0,0-2.79.27,8.42,8.42,0,0,0-2.64,1.29,12,12,0,0,0-3.84,4.66c-1.93,4.16-1.37,10.19,3.35,12.18,4.17,1.76,9.16-.3,11.92-3.62,2.92-3.51,4.08-8.74.78-12.41a8.56,8.56,0,0,0-5.73-2.68,5.81,5.81,0,0,0-3.28.78,3.21,3.21,0,0,0-1.8,3.5,1.73,1.73,0,0,0,1.64,1.25,3.61,3.61,0,0,0,1.18-.14,3.47,3.47,0,0,0,.69-.26c.17-.09.57-.17,0,0l.37-.11c.44-.15.05.14-.1,0,.09.09.79-.05,1-.06l.49,0c0,.08-.6-.13-.09,0l.89.25c.46.15-.11,0-.12,0s.38.19.45.23l.44.27c.41.25-.33-.33,0,0q.31.29.6.6c.39.4-.24-.45,0,0l.25.43c.16.25.12,0,0-.12a1.83,1.83,0,0,1,.17.53c0,.17.07.35.11.52s0,.14,0-.12c0,.14,0,.28,0,.43s0,.42,0,.63-.07.46,0,0a10.54,10.54,0,0,1-.28,1.14l-.18.5c.19-.49-.09.17-.12.22a12.85,12.85,0,0,1-.68,1.12c-.37.59.17-.18-.09.14q-.16.21-.36.42c-.24.27-.51.53-.78.78s-.33.29-.5.42c.39-.3-.2.12-.23.15-.36.23-.73.42-1.1.63-.59.32.25-.09-.13.06l-.5.18a9.34,9.34,0,0,1-1,.27c-.08,0-.75.08-.21,0l-.63,0a2.84,2.84,0,0,1-.41,0c-.27,0-.27,0,0,0l-.39-.07-.39-.11c-.56-.12.31.22-.19-.07a5.48,5.48,0,0,1-.52-.31c.08.06.29.28,0,0a4.25,4.25,0,0,1-.47-.48c.23.28,0-.1-.09-.18s-.18-.32-.26-.49c.15.33-.14-.44-.16-.52a7.19,7.19,0,0,1,.11-3.84c.05-.16.1-.32.16-.48s.27-.77.15-.48a8.23,8.23,0,0,1,.56-1.11,8.59,8.59,0,0,1,1.32-1.77,14.34,14.34,0,0,1,3.82-3.08c.69-.34.32-1.36-.37-1.38Z"/><path class="cls-9" d="M318.38,597c-.17,3.56,1,7,2.07,10.4.54,1.72,1.11,3.44,1.64,5.17a11.8,11.8,0,0,1,.76,4.91c-.28,2-2.52,3.64-4.23,4.52-2.14,1.11-4.94,1.6-6.62,3.44a1.24,1.24,0,0,0,.54,2c2.68,1.11,6.22-.27,8.6-1.55a9.83,9.83,0,0,0,5.34-6.7c.87-4-.75-7.72-2-11.43s-2.47-8-5.05-11.22c-.36-.44-1,0-1,.43Z"/><path class="cls-9" d="M318.68,626.41a20.52,20.52,0,0,0,.4,3.29c.26,1.13.62,2.25,1,3.36.67,2.08,1.31,4.16,1.9,6.26s1.11,4.22,1.82,6.29c.36,1,.81,2,1.16,3.07a7,7,0,0,0,1.26,2.89.67.67,0,0,0,1.11-.29,6.72,6.72,0,0,0,0-3.15c-.12-1.14-.15-2.27-.31-3.41a46.29,46.29,0,0,0-1.51-6.36c-.6-2.1-1.23-4.19-1.93-6.25-.35-1-.74-2.07-1.17-3.07a15.15,15.15,0,0,0-1.92-3.1c-.5-.66-1.8-.56-1.74.47Z"/><path class="cls-9" d="M346.05,591.23a27.17,27.17,0,0,0,2.07,2.35l2.3,2.12c1.59,1.45,3.24,2.84,4.85,4.27s3.11,2.81,4.71,4.15a32.45,32.45,0,0,0,5.36,3.57c.77.42,1.8-.46,1.26-1.25a28.73,28.73,0,0,0-4-4.93c-1.57-1.47-3.22-2.87-4.87-4.25s-3.19-2.72-4.84-4c-.89-.7-1.79-1.37-2.69-2a22.42,22.42,0,0,0-2.83-1.68,1.09,1.09,0,0,0-1.31,1.7Z"/><path class="cls-1" d="M570.23,701.33l-30.38,60.12L616,793.6s48.11-27.43,74.41-77.32C690.37,716.28,630.8,696.06,570.23,701.33Z"/><path class="cls-1" d="M269.12,222.21s-4.11-10.85-10.91-13.49c-10.21-4-21.08-3.7-27.57-.38-9,4.62-12.5,16.83-8.91,26.31s12.87,16,22.75,18.29c7.81,1.79,16.5,1,23.37-2.91,0,0,34.44,53.22,86.87,49.09s85.93-44.57,62.45-112.46c-21.55-62.3-50.35-75-77.9-71.54s-50.26,15-59.93,44.24,11.05,58.44,5.71,64.71C279.34,230.8,269.12,222.21,269.12,222.21Z"/><g class="cls-10"><path class="cls-11" d="M430.26,194a30.67,30.67,0,0,0-6.87-2.44,1.89,1.89,0,0,0-.9-1.93,9.2,9.2,0,0,0-3.71-1.58,33.49,33.49,0,0,0-5.2-.34,59.29,59.29,0,0,0-9.4.76c-5.67.87-11.26,2.46-15.66,6.33s-6.65,9.92-5.07,15.55c1.45,5.16,5.87,9.16,10.63,11.33a37.7,37.7,0,0,0,32.32-.84c4.92-2.48,10-6.78,11.22-12.43C438.92,202.34,435.68,196.78,430.26,194Z"/><path class="cls-11" d="M348,209.79a12.28,12.28,0,0,0-3.59-2.28.66.66,0,0,0-.1-.44,17.65,17.65,0,0,0-6.45-5.2c-2.89-1.44-6.29-1.48-9.45-1.38A40.22,40.22,0,0,0,310.7,205c-5.95,3.22-10.83,8.36-12,15.24-1.09,6.4,2.07,12.78,7.3,16.44,5.51,3.85,12.22,4.72,18.77,3.81s13.21-2.73,18.76-6.12a17.32,17.32,0,0,0,8.59-15.8A13,13,0,0,0,348,209.79Z"/></g><path class="cls-7" d="M250.55,236.61l-.54-.75a6.36,6.36,0,0,0-.87-.85c-.54-.49-1.11-.94-1.66-1.43a20,20,0,0,1-2.81-3.08,33.53,33.53,0,0,1-2.26-3.65c-.48-.9-1-1.81-1.42-2.72a12.93,12.93,0,0,1,2.41-1.72,12.79,12.79,0,0,1,4.83-1.79.37.37,0,0,0,.1-.73,9.77,9.77,0,0,0-6.07-.18,10.67,10.67,0,0,0-5.07,3.6,12.22,12.22,0,0,0-2.52,6.11,9.18,9.18,0,0,0,.21,3.3c.19.81.77,2.34,1.58,2.71a.85.85,0,0,0,1.13-.3,2.39,2.39,0,0,0,.16-1.27c0-.44.05-.88.05-1.31a20.06,20.06,0,0,1,.15-2.46,10,10,0,0,1,1.82-4.65l.06-.08a10.84,10.84,0,0,0,.52,2.36,16.53,16.53,0,0,0,2.21,4.25,22.41,22.41,0,0,0,3.13,3.54,10.6,10.6,0,0,0,1.94,1.46,5.7,5.7,0,0,0,1.1.56,9.63,9.63,0,0,0,1.2.17A.72.72,0,0,0,250.55,236.61Z"/><path class="cls-2" d="M246.76,246.29a9.7,9.7,0,0,0-1,1.47,7.69,7.69,0,0,0-.5,1.76,10.22,10.22,0,0,0,.07,4,13,13,0,0,0,1.27,3.52,5.09,5.09,0,0,0,3,2.66,1,1,0,0,0,1.24-1.24c-.55-2.12-1.83-3.7-2.37-5.81a25.6,25.6,0,0,1-.52-2.86c-.08-.59,0-1.18-.12-1.77a14.81,14.81,0,0,1-.14-1.48.51.51,0,0,0-1-.26Z"/><path class="cls-2" d="M255.14,248.51a11.53,11.53,0,0,0,.28,10.51,4.25,4.25,0,0,0,2.18,2.14,1.27,1.27,0,0,0,1.48-.35,1.82,1.82,0,0,0,.15-1.64,5,5,0,0,0-.63-1.24c-.2-.37-.38-.74-.56-1.12-.05-.1-.1-.2-.14-.3,0,.07.09.24,0-.07s-.14-.37-.2-.55c-.12-.4-.23-.81-.31-1.22,0-.11,0-.22-.06-.33-.06-.28,0,0,0-.14s0-.45-.07-.67a11.16,11.16,0,0,1-.06-1.42,8.37,8.37,0,0,1,.45-2.56c.46-1.43-1.81-2.44-2.46-1Z"/><path class="cls-4" d="M335.9,159.27a12.38,12.38,0,0,0-3.49-.85,16.91,16.91,0,0,0-3.69.21,19.4,19.4,0,0,0-6.79,2.55,20.9,20.9,0,0,0-5.45,4.59,17,17,0,0,0-2.08,3.11,8.55,8.55,0,0,0-.72,2.06,3.4,3.4,0,0,0,0,2.08,1.82,1.82,0,0,0,2.62,1.07,7,7,0,0,0,2.27-2.63,24.12,24.12,0,0,1,1.59-2.24,17.39,17.39,0,0,1,4.28-3.79,17.94,17.94,0,0,1,5.26-2.29,29.07,29.07,0,0,1,5.85-1,1.44,1.44,0,0,0,.38-2.82Z"/><path class="cls-12" d="M366.27,156.13a75.69,75.69,0,0,0,.63,25,88.13,88.13,0,0,0,3.22,11.81c1.39,4,2.91,8,5.82,11.15a1,1,0,0,0,1.78-.86c-.61-3.9-2.26-7.5-3.52-11.22a109.76,109.76,0,0,1-3.27-11.67,139.07,139.07,0,0,1-3.34-24.11.66.66,0,0,0-1.32-.09Z"/><path class="cls-13" d="M339.27,194.42c0,2.23-1.3,4-2.89,4s-2.88-1.81-2.88-4,1.29-4,2.88-4S339.27,192.18,339.27,194.42Z"/><path class="cls-13" d="M396.86,182c0,2.23-1.3,4-2.89,4s-2.88-1.81-2.88-4,1.29-4,2.88-4S396.86,179.77,396.86,182Z"/><path class="cls-14" d="M354.81,215.8c3.46,5.73,10.51,8.57,17,7.64a9.53,9.53,0,0,0,4.62-1.63,1.69,1.69,0,0,0,.52-2c-.49-.89-1.61-.78-2.42-.57a21.76,21.76,0,0,1-9.08.56,18.62,18.62,0,0,1-9.64-4.79.65.65,0,0,0-1,.78Z"/><path class="cls-4" d="M378.41,154.52c1.46.82,3.62.55,5.26.6a27.43,27.43,0,0,1,5.33.71,23.87,23.87,0,0,1,4.92,1.7c1.45.7,3.63,2.28,5.31,1.7a1.26,1.26,0,0,0,.9-1.18c0-2-2.53-3.37-4.11-4.11a28.38,28.38,0,0,0-5.93-2.07,26,26,0,0,0-6.09-.67c-1.78,0-4.55.16-5.81,1.62a1.1,1.1,0,0,0,.22,1.7Z"/><path class="cls-2" d="M268.9,323c-26.06,12.89-65.72,23-84.4,45.26-16.21,19.31-27.07,52.52-32.43,77.15-10.44,47.94-13.13,98.26,0,133.53,0,0,70.63,12.56,133.62-.75,66.65-14.08,73.41-22,73.41-22l-5.3-15.44s21.26-23.17,27.85-62.86l36.93-.85s2.62-44.87-13.53-74.86-23.62-35.05-38-48.59c0,0-6.88,18.95-44.73,16.14S268.9,323,268.9,323Z"/><g class="cls-15"><path class="cls-16" d="M279.33,537.28c-.83-7.89-4.12-15-8.39-21.64-3.86-6-8.13-11.7-12.39-17.4a329.2,329.2,0,0,0-27.83-33.09,191.06,191.06,0,0,0-33-27.31c-6.32-4.08-15.84-10.9-22.57-3.76a11.85,11.85,0,0,0-1.34,1.8,2.1,2.1,0,0,0-2.52,1.08,31.56,31.56,0,0,0-2.12,4.71c-.48,1.59-.86,3.22-1.26,4.84a100,100,0,0,0-1.77,9.87,157.26,157.26,0,0,0-1.57,20.68,130.24,130.24,0,0,0,6,40.27C178.73,542.9,197,568.57,224,576.15c13,3.65,27,2,38.17-5.88C272.69,562.87,280.73,550.61,279.33,537.28Z"/><path class="cls-16" d="M381.1,484.56s2.48-31.33-14.8-69.84c0,0,38,36.65,44.67,76.19Z"/></g><path class="cls-1" d="M226.22,427.16c-22.6,12.29-37.17,41.65-27.08,69.6,8.55,23.68,50.2,63.56,81,67.32,23.17-35.61,17.68-50.13,8.72-81.29-3-10.39-27.45-42.17-34.82-52.91C254,429.88,248.82,414.87,226.22,427.16Z"/><path class="cls-7" d="M308.49,351.07s-1.67-20.61,4.22-25.09,9.53,15,9.53,15Z"/><path class="cls-1" d="M281.1,482.79S305,438.46,304.67,399.3s.21-46.13.21-46.13,35.2-47,48.21-46.5-11.38,29.91-11.38,29.91,32.2-30,36.25-23.14-21.39,30.4-21.39,30.4,22.26-19.2,26.68-13.15-15.77,21-15.77,21,10,5.24,9.55,15.7-13.6,22.2-13.6,22.2c10.4,96.22-23.44,163.57-83.32,174.45"/><path class="cls-2" d="M217.21,351.91s-35-.29-52,50.28c-19.55,58.23,34.95,107.05,34.95,107.05,12.85-35.82,29.66-66.51,61.17-78.1C261.36,431.14,253.22,383.06,217.21,351.91Z"/><path class="cls-12" d="M305.63,353.09c-.68,9.45-.38,19-1,28.42a268.42,268.42,0,0,1-3.45,28.54,283.48,283.48,0,0,1-15.2,54.7c-2,5-4.06,9.87-6.15,14.79-1.07,2.51-2.14,5-3.24,7.53s-1.73,5-2.75,7.43c-.37.88,1,1.32,1.46.61,1.38-2,3-3.85,4.27-6s2.42-4.23,3.53-6.39c2.21-4.27,4.18-8.64,6-13.08a256.86,256.86,0,0,0,9.51-27.38,247.88,247.88,0,0,0,9.24-57.12c.24-5.35.35-10.69.3-16,0-2.71,0-5.47-.29-8.17s-.7-5.33-1.21-8c-.12-.6-1-.41-1,.14Z"/><path class="cls-12" d="M364.79,350.77c.84,1.49,2,2.77,3,4.17a23.26,23.26,0,0,1,2.38,4.49,22.8,22.8,0,0,1,1.51,10.24,27.69,27.69,0,0,1-3.44,10.94A55.43,55.43,0,0,1,365,386c-1.15,1.65-2.57,3.25-2.77,5.31-.11,1.09,1.08,1.69,2,1.51,2.25-.43,3.95-2.79,5.25-4.51a36.13,36.13,0,0,0,3.77-6,32.61,32.61,0,0,0,3.5-13.07,26.34,26.34,0,0,0-2.45-11.82c-1.49-3.25-4.65-7.38-8.41-8a.93.93,0,0,0-1,1.35Z"/><path class="cls-16" d="M173.74,414.86c-1.85,13.61,1.23,27.85,6.49,40.4a94.25,94.25,0,0,0,4.51,9.33c1.53,2.75,3.31,6,5.94,7.84s5.44.24,5.84-2.84a73,73,0,0,0,.42-11.16c-.21-8-1.23-17-5-24.1-.46-.87-2-.52-1.93.52.61,6.3,2.16,12.46,2.63,18.79.23,3.18.34,6.39.27,9.58,0,1.49-.09,3-.19,4.48,0,.34-.34,1.9.09,1.66s.05-.24-.24-.51a10.21,10.21,0,0,1-.92-.94,36.14,36.14,0,0,1-4.63-7.25c-1.42-2.66-2.74-5.39-3.89-8.18a105.6,105.6,0,0,1-5.26-17.19,146.8,146.8,0,0,1-2.68-20.24c-.07-.75-1.31-1.06-1.43-.19Z"/><path class="cls-16" d="M189.67,365.76a26.42,26.42,0,0,1,7.76-1.2,28.9,28.9,0,0,1,7.81.87,34.12,34.12,0,0,1,13.45,7.27c8.14,6.89,14.2,16.24,19.29,25.5,3,5.46,5.65,11.08,8.55,16.58.46.88,1.57.21,1.46-.61-1.6-11.69-7.57-22.87-14.51-32.23-6.68-9-15-17.66-26.34-20.4a27.12,27.12,0,0,0-9.45-.73,23.73,23.73,0,0,0-4.55.94,20.33,20.33,0,0,0-4.23,2.22c-.91.56-.32,2.17.76,1.79Z"/><polygon class="cls-17" points="409.5 660.05 259.43 686.78 383.58 712.78 612.64 646.77 409.5 660.05"/><path class="cls-18" d="M383.58,712.78C383.44,696.2,449,518.7,475.46,446.21c0,0,148.38-28,218.35-21.86,0,0-59.22,144.87-81.17,222.42Z"/><path class="cls-19" d="M473.31,445.89c-4.86,11.9-9.42,23.91-14,35.95-6.4,16.91-12.68,33.88-19,50.83Q430,560.54,420,588.52c-6.25,17.38-12.39,34.8-18.2,52.33-4.28,12.94-8.45,25.92-11.52,39.2-.26,1.12-.33,2.45-.57,3.47-.44,1.84,2.39,2.62,2.83.78.26-1.1.85-2.35,1.18-3.51s.7-2.5,1.09-3.73l2.73-8.62q3.28-10.4,6.74-20.74c5.71-17.14,11.73-34.17,17.81-51.18q10-28,20.33-55.87,9.58-26,19.16-52C466.25,475.82,471,463,475,450c.34-1.11.67-2.23,1-3.35.52-1.74-2-2.32-2.65-.73Z"/><path class="cls-2" d="M496.25,453.72c18.71-3,37.44-6.16,56.22-8.79q27.88-3.9,56-6c10.7-.8,21.37-1.88,32-3a.58.58,0,0,0,0-1.15,271.47,271.47,0,0,0-28.67.22c-9.54.66-19.08,1.46-28.59,2.49-18.77,2-37.47,4.68-56,8.1-10.52,1.95-20.9,4.37-31.23,7.14-.64.17-.36,1.07.27,1Z"/><path class="cls-1" d="M789,733.71l-10.87,76.66L701.22,789l-25.16,81.85c17.79,4.6,80.67,6.4,114.42,5.69,0,0,33,15.24,51.44-16.41,9-15.51-1.45-56.35-1.45-56.35s25.68-55.26,4.91-87.9"/><g class="cls-20"><path class="cls-7" d="M742.18,765.87A269.8,269.8,0,0,0,760.1,906.3l-73.93-9.95c-2.17-.29-4.48-.65-6.11-2.1a10.91,10.91,0,0,1-2.68-5,266.71,266.71,0,0,1-11.18-54.43c-1.09-11.12-1.47-22.46,1-33.34s7.61-20.71,13.27-30.18q6.54-11,14.06-21.38"/></g><path class="cls-8" d="M243.48,651.78l11,22.86s116.77,11.26,242,73.66c0,0,118.47,13.46,197.34,35.62l-17.37,97s-126,25.91-196.56-24.82c0,0-288.42,43.89-322.92-72.22S243.48,651.78,243.48,651.78Z"/><path class="cls-21" d="M691.12,777.11s-46,52.83-29.37,110.46h50.16c3.7-39,11.87-71,25.77-94.11Z"/><path class="cls-9" d="M239.3,674.35c4.73.87,9.42,1.89,14.17,2.66s9.44,1.47,14.16,2.15c8.91,1.28,17.78,2.71,26.66,4.2q25.23,4.23,50.15,10.15,23.88,5.72,47.25,13.34c16,5.23,31.77,11.13,47.32,17.58q12.42,5.13,24.69,10.62c8.61,3.84,17.33,7.44,25.94,11.29,2.19,1,4.35,1.92,6.62,2.71.87.31,1.31-1,.6-1.43-4.11-2.7-8.58-4.86-12.92-7.16-4.14-2.2-8.26-4.39-12.48-6.45-8.15-4-16.49-7.61-24.82-11.18q-23.53-10.1-47.82-18.32-23.38-7.9-47.34-13.88c-16.43-4.1-33-7.46-49.73-10.31-8.86-1.51-17.75-2.83-26.66-4-9.33-1.25-18.78-2.64-28.21-2.87-2.47-.06-4.94-.18-7.42-.29-.69,0-.86,1.09-.16,1.22Z"/><path class="cls-8" d="M693.78,793.49a85.88,85.88,0,0,0-13.9,26.88A80.22,80.22,0,0,0,676.8,835a57.84,57.84,0,0,0-.28,7.44c.06,2.51,0,5.32.87,7.71a.91.91,0,0,0,1.74,0,45.3,45.3,0,0,0,.76-7.17c.25-2.49.61-5,1-7.42A99.33,99.33,0,0,1,684,821.49a86.56,86.56,0,0,1,13-26.13c1.42-1.94-1.78-3.73-3.2-1.87Z"/><path class="cls-8" d="M700.12,797.72a98.22,98.22,0,0,0-8.72,55,51.38,51.38,0,0,0,1.47,7.59c.65,2.22,1.22,5.37,2.86,7.09A.79.79,0,0,0,697,867a11.14,11.14,0,0,0-.24-3.81c-.21-1.5-.41-3-.61-4.5-.37-2.75-.83-5.47-1.11-8.23a109.59,109.59,0,0,1-.37-17.47,101.49,101.49,0,0,1,7.89-33.84c.72-1.66-1.68-3.14-2.48-1.45Z"/><path class="cls-9" d="M189.35,679.24a67.36,67.36,0,0,1,7.38-2.73c2.44-.85,4.91-1.66,7.4-2.36A133.77,133.77,0,0,1,219,670.67a108.1,108.1,0,0,1,30.27-.72c2.85.33,5.65.88,8.48,1.38,1.41.26,2.87.3,4.3.56a29.73,29.73,0,0,0,4.29.7,1.09,1.09,0,0,0,.54-2c-2.19-1.37-4.93-1.92-7.33-2.84a36.1,36.1,0,0,0-7.6-1.55,99.7,99.7,0,0,0-15.82-1.1c-10.51.13-21.52,1.62-31.38,5.42-2.7,1-5.39,2.16-8,3.46s-5.2,3.11-7.84,4.64c-.42.24,0,.84.37.64Z"/><path class="cls-9" d="M158.58,732.45a50.32,50.32,0,0,0,3.78,12.12,76.13,76.13,0,0,0,6.52,11,121,121,0,0,0,16.85,19,202,202,0,0,0,42.58,30c32.66,17.28,69,26.19,105.72,29.15,11.12.89,22.26,1.2,33.41,1,5.69-.09,11.36-.53,17-1a164.55,164.55,0,0,0,16.57-2c.79-.15.57-1.35-.19-1.37-4.94-.13-9.91.08-14.86.13s-9.73,0-14.6,0c-9.84-.11-19.65-.18-29.48-.75a307,307,0,0,1-57.05-8.52c-33-8.31-64.78-23.08-90.87-45.14a143.39,143.39,0,0,1-19.85-20,86.87,86.87,0,0,1-7.76-11.54c-1.09-1.94-2-4-3-5.91a53.4,53.4,0,0,1-3.11-6.69.86.86,0,0,0-1.66.46Z"/><path class="cls-9" d="M495.05,837a73.48,73.48,0,0,0,6.13,4.39c2.05,1.24,4.2,2.33,6.35,3.39,4.35,2.15,8.81,4.06,13.35,5.78a191.33,191.33,0,0,0,27.84,8.16c19.32,4.13,39.14,6,58.86,6.75a255.28,255.28,0,0,0,33.65-.45.79.79,0,0,0,0-1.57c-9.73-1.2-19.5-1.54-29.29-2s-19.58-1-29.34-1.89c-19.19-1.83-38.39-5.15-56.71-11.27-5.06-1.69-10-3.62-14.93-5.74q-3.79-1.65-7.53-3.45c-2.52-1.21-5.15-2.15-7.69-3.31a.68.68,0,0,0-.69,1.18Z"/><path class="cls-1" d="M847.88,722.14c2.8-8.61,3.7-18.48-.72-26.39-2.39-4.27-7.7-7.91-12-5.54a10.51,10.51,0,0,0-3.95,4.83,42.77,42.77,0,0,0-4.05,13.34,14.69,14.69,0,0,0-6.4-6.32,7.48,7.48,0,0,0-4.7-.92c-2.38.46-4.14,2.63-4.82,5a19.93,19.93,0,0,0-.29,7.23c-3.08-2.82-7.35-5.05-11.32-3.76s-5.76,7.59-2.15,9.66a11,11,0,0,0-16.24,12.92c1.86,5.17,7.21,8.16,12.34,10.12"/><path class="cls-2" d="M799,741.68c1.83-1.33,3.41-3,5.15-4.5s3.3-2.72,5-3.94A54.52,54.52,0,0,1,820.84,727a49.73,49.73,0,0,1,12.45-3c2.13-.23,4.27-.26,6.4-.43s4.44-.05,6.56-.42a.93.93,0,0,0,.26-1.71,20.49,20.49,0,0,0-6.67-1.78,28.25,28.25,0,0,0-6.69,0,52.24,52.24,0,0,0-25.9,10.11c-3.62,2.73-7.64,6.1-9.79,10.44a1.08,1.08,0,0,0,1.5,1.42Z"/><path class="cls-12" d="M788.49,738.9c-3.27,7-4.61,15-6,22.58-1.43,7.81-2.55,15.67-3.44,23.56-.92,8.06-1.59,16.15-2,24.25-.17,3.88-.32,7.76-.35,11.65a92.58,92.58,0,0,0,1.1,12.67.79.79,0,0,0,1.58,0c.43-4.09,1-8,1.15-12.17.12-3.88.23-7.76.43-11.65.4-7.92,1-15.85,1.83-23.74s1.93-15.76,3.18-23.6,3.13-15.51,3.29-23.33c0-.41-.62-.62-.81-.22Z"/><path class="cls-19" d="M364.2,412.32c-.46,5.41.26,10.79.36,16.21a143.51,143.51,0,0,1-.66,16.84A152.72,152.72,0,0,1,357,477.68a179.89,179.89,0,0,1-27.28,51.56c-2.41,3.21-4.88,6.38-7.35,9.55a60.14,60.14,0,0,1-6,6.76.76.76,0,0,0,.91,1.19,61.88,61.88,0,0,0,14.05-12.32,143.38,143.38,0,0,0,15.53-22.61,160.07,160.07,0,0,0,20.41-62,146.61,146.61,0,0,0,.94-19.65c-.17-6.12-.49-12.52-3.26-18.07-.18-.37-.68-.16-.71.19Z"/><path class="cls-19" d="M431.91,700.07a141.26,141.26,0,0,0,15-3.58c5-1.5,10.05-3.1,15.07-4.65,10.16-3.13,20.31-6.29,30.49-9.35q30.9-9.27,61.92-18.12c5.73-1.63,11.45-3.3,17.12-5.09s11-4,16.47-6.06a1.16,1.16,0,0,0-.62-2.23c-5.09,1-10.22,1.69-15.25,3S562,656.6,556.9,658c-10.36,2.83-20.66,5.89-31,8.89-20.73,6-41.46,12.21-61.91,19.14-5.55,1.88-11.11,3.72-16.6,5.77a129.28,129.28,0,0,0-16,7.15c-.66.35-.18,1.25.47,1.13Z"/><path class="cls-21" d="M560.15,712.78S649,691.1,685.78,730.12c0,0,15-6.47,25.87-39.44,0,0-1-13.76-59.54-27-30.84-7-70.53,10.09-70.53,10.09Z"/><path class="cls-8" d="M580,666.09A92.8,92.8,0,0,1,651,627"/><path class="cls-9" d="M580.42,666.33a76.39,76.39,0,0,1,11.17-12,105.81,105.81,0,0,1,12.77-9.94,97.77,97.77,0,0,1,29.32-13c5.79-1.47,11.85-1.89,17.58-3.53.86-.24,1-1.67,0-1.85-5.37-1-11.17,0-16.44,1.23a91.23,91.23,0,0,0-16,5.23,86.77,86.77,0,0,0-27.7,18.63,106.61,106.61,0,0,0-11.57,14.7c-.36.53.48,1,.84.49Z"/><path class="cls-9" d="M593.46,660.56a41.61,41.61,0,0,0,4.91-2.45c1.65-.85,3.35-1.63,5-2.38A68.28,68.28,0,0,1,614.29,652a63.12,63.12,0,0,1,11-1.75c3.88-.29,7.77-.09,11.65-.31a1.32,1.32,0,0,0,.35-2.58c-7.51-2.24-16.29-.92-23.72,1a57.22,57.22,0,0,0-11.06,4.19c-3.34,1.67-7.37,3.81-9.74,6.78-.39.48,0,1.42.68,1.16Z"/><path class="cls-22" d="M103.28,687.7a40.48,40.48,0,0,0-8.1-27.17c-2.09-2.82-4.72-5.54-8.33-6.82s-8.41-.62-10.49,2.21c-1.5,2.05-1.28,4.69-.62,7,1.65,5.9,5.7,11.16,10.6,15.57S97,686.56,103.28,687.7Z"/><path class="cls-22" d="M94.14,721.2A95.19,95.19,0,0,0,85,712.7a61.41,61.41,0,0,1,16.72-34.81c3.82-4,8.82-7.93,14.9-8.1a15.06,15.06,0,0,1,12.76,6.64,15.72,15.72,0,0,1,1.5,13c-1.28,4.33-4,8.27-7.12,11.85C116.51,709.65,106.72,716.4,94.14,721.2Z"/><path class="cls-22" d="M40.88,715.94c3-1.93,6.24-3.53,9.63-3.74-.6-17.05-1.33-34.6-9.41-50.21-3.06-5.92-7.4-11.68-14-14.94S11.43,643.67,6,648.17A14.1,14.1,0,0,0,1,659.25c0,4.06,1.42,8,3.16,11.81C11.87,687.78,25.85,701.77,40.88,715.94Z"/><path class="cls-22" d="M88.56,781.75c-16.59-.16-33.17-.31-49.12-.84-7.1-10.48-14.3-21.16-17.44-33s-1.68-25.1,7.23-34.52c5.09-5.39,12.27-9.15,19.9-11.52,11.82-3.66,25.61-3.95,36.51,1.4a35.35,35.35,0,0,1,18.63,23.32c2.3,9.49.76,19.42-2.64,28.66S93,773.22,88.56,781.75Z"/><path class="cls-23" d="M69.5,699.56a39,39,0,0,1,30.62,19.18c5.73,10.19,6.08,22.13,3.18,33.15S94.44,773.17,87.94,783"/><path class="cls-23" d="M127.3,674c-4.13-3.54-10.88-4.24-16.38-2.52-10.36,3.26-18.65,17-21.06,24"/><path class="cls-23" d="M20,644.79c9.5,2.92,16.55,10.06,20.66,17.92s5.65,16.49,7.16,25"/><path class="cls-23" d="M78.16,654.63c-4.65,2.74-2.4,11.82,1.63,15.91"/><path class="cls-23" d="M97.26,658.91l-2.8,4.91"/><path class="cls-23" d="M90.72,653.54c-.43,1.93-.85,3.87-1.27,5.8"/><path class="cls-23" d="M88.51,666.87l-3.82-3.81"/><path class="cls-23" d="M82.8,650.77l.12,5.48"/><path class="cls-23" d="M96.16,670.38l-.06,5.19"/><path class="cls-23" d="M92.27,679.25l-6.54-.32"/><path class="cls-23" d="M88.4,674.33l-5-.65"/><path class="cls-23" d="M123.69,679.15a25.84,25.84,0,0,0-5.58,4.66"/><path class="cls-23" d="M130.86,694l-8.25,1.78"/><path class="cls-23" d="M135,682.67l-5.86,1.56"/><path class="cls-23" d="M124.14,706.5l-6.92-1.58"/><path class="cls-23" d="M113.5,715.2l-8.09-2.92"/><path class="cls-23" d="M113.61,696.9l-6.37,3.62"/><path class="cls-23" d="M104.85,684.32l-2,6.65"/><path class="cls-23" d="M98,698c-.43,2.1-.85,4.21-1.28,6.32"/><path class="cls-23" d="M30.39,658.59c-.42,2.49-.85,5-1.27,7.46"/><path class="cls-23" d="M12.81,642.05c.38,2.11.77,4.23,1.15,6.34"/><path class="cls-23" d="M8.84,654.84l-7.22-3.37"/><path class="cls-23" d="M18,658.21c.6,2.19,1.19,4.37,1.79,6.55"/><path class="cls-23" d="M8.8,671a29.33,29.33,0,0,1-8.25-1.24"/><path class="cls-23" d="M19.09,684.39l-8.72,2.89"/><path class="cls-23" d="M23.75,675c.5,2.34,1,4.67,1.51,7"/><path class="cls-23" d="M38.69,675.7l-.6,7.15"/><path class="cls-23" d="M52.12,690.21l-4.61,6.65"/><path class="cls-23" d="M35.9,697.09l-5.51-4.51"/><path class="cls-23" d="M31.62,703.56l-8.59-.9"/><path class="cls-23" d="M11.85,666.54l-6.58-5.06"/><path class="cls-23" d="M26.42,724.47l-8.9-7.17"/><path class="cls-23" d="M50.72,713.67q.72,5.37,1.45,10.74"/><path class="cls-23" d="M69.18,712.68,66.41,721C66.5,720.79,66.6,720.57,69.18,712.68Z"/><path class="cls-23" d="M63.09,695.25q-1.58,4.15-3.14,8.3"/><path class="cls-23" d="M47.85,708.31l-4.35-4.2"/><path class="cls-23" d="M25.68,736.53,16.85,736"/><path class="cls-23" d="M84.83,720.88c-.76,2.9-1.51,5.8-2.27,8.7"/><path class="cls-23" d="M98.56,735.42l-5.5,8.27"/><path class="cls-23" d="M98.12,723.36l-5.71,4.37"/><path class="cls-23" d="M64.08,732.77q-2,3.83-4.1,7.64"/><path class="cls-23" d="M72.4,748.15l-5.81,6.76"/><path class="cls-23" d="M47.77,749.35l-5.19-5.77"/><path class="cls-23" d="M42.25,733.42q-2.85-3-5.68-6"/><path class="cls-23" d="M37.88,713.09l-4,8"/><path class="cls-23" d="M78.16,737l3.25,8.34"/><path class="cls-23" d="M86.88,760.33l-6.45,5.37"/><path class="cls-23" d="M96.21,759.53l-4.53-6.42"/><path class="cls-23" d="M83.4,776l-5.94,6.11"/><path class="cls-23" d="M65.71,764.85l-4.85,6.09"/><path class="cls-23" d="M48.7,765.7l-7.38-6.92"/><path class="cls-23" d="M30.33,745.53c-.59,2.92-1.19,5.84-1.78,8.76"/><path class="cls-23" d="M33.88,768.51l-9.66-3.6"/><path class="cls-23" d="M23.79,749l-7.26-1.21"/><path class="cls-23" d="M55.35,780.53l-8.58-5.76"/><path class="cls-24" d="M18.78,777.22q5.52,36.31,11,72.64l61.75.71L105,778.66Z"/><path class="cls-25" d="M14.37,773.88c31.15.59,65.88,1.18,97.84,1.41-1.93,6.37-3.62,12.79-5.5,19.49-29.63-1.24-59.33-1.27-89.46.42C16.5,790.67,14.6,778.48,14.37,773.88Z"/><path class="cls-23" d="M107.09,791.49c1.91-5.33,3.82-10.67,6.56-15.25-31.91-2.87-99.28-2.36-99.28-2.36"/><path class="cls-23" d="M92.75,788,29,789.16"/><path class="cls-23" d="M23.71,803.34c1.55,15.12,3.89,30.18,6.85,45.93l58.89,1.16"/><ellipse class="cls-26" cx="336.61" cy="194.09" rx="23" ry="20.14" transform="translate(91.76 495.79) rotate(-80.91)"/><ellipse class="cls-26" cx="398.53" cy="182.07" rx="18" ry="23"/><path d="M357.83,189.51a24.91,24.91,0,0,1,4.23-7.42,7.69,7.69,0,0,1,6.4-3.56c5.42,0,9,4.64,11.24,9.05.87,1.73,3.46.21,2.59-1.51-2.76-5.47-7.55-10.75-14.2-10.53a10.29,10.29,0,0,0-7.89,4.07,28.08,28.08,0,0,0-5.27,9.1c-.55,1.85,2.34,2.64,2.9.8Z"/><path d="M316.56,196.68q-26.26,6.16-52.21,13.63a1.5,1.5,0,0,0,.8,2.89q25.94-7.47,52.21-13.62c1.88-.45,1.09-3.34-.8-2.9Z"/></g></g></g></svg>