<svg xmlns="http://www.w3.org/2000/svg" id="canvas" viewBox="241.422 118.779 663.941 344.204"><path d="M 266.16,192.52 C 265.23 194.24, 265.58 195.86, 265.28 201.33 C 264.98 206.80, 264.82 210.97, 264.66 219.88 C 264.50 228.79, 264.62 234.81, 264.48 245.87 C 264.34 256.93, 264.29 263.35, 263.97 275.18 C 263.64 287.00, 263.39 293.32, 262.88 304.98 C 262.36 316.65, 262.25 322.64, 261.41 333.49 C 260.57 344.34, 259.90 349.56, 258.68 359.25 C 257.47 368.94, 256.59 374.13, 255.34 381.94 C 254.08 389.74, 253.53 393.29, 252.40 398.27 C 251.28 403.26, 250.08 404.52, 249.71 406.88 C 249.34 409.23, 249.99 409.46, 250.55 410.03 C 251.10 410.60, 251.98 410.01, 252.48 409.73 C 252.98 409.45, 253.75 408.77, 253.05 408.61 C 252.34 408.44, 249.62 408.49, 248.95 408.89 C 248.29 409.28, 248.98 410.09, 249.72 410.58 C 250.46 411.07, 251.46 411.76, 252.64 411.33 C 253.82 410.89, 254.74 410.86, 255.62 408.40 C 256.49 405.95, 256.35 404.27, 257.00 399.07 C 257.64 393.87, 257.90 390.32, 258.82 382.42 C 259.74 374.52, 260.55 369.33, 261.60 359.59 C 262.64 349.84, 263.29 344.58, 264.06 333.69 C 264.84 322.79, 264.95 316.78, 265.48 305.10 C 266.01 293.42, 266.27 287.10, 266.71 275.27 C 267.16 263.43, 267.32 256.99, 267.71 245.94 C 268.09 234.89, 268.18 228.89, 268.63 220.01 C 269.08 211.14, 269.68 207.03, 269.95 201.57 C 270.21 196.11, 270.72 194.52, 269.97 192.71 C 269.21 190.90, 267.10 190.79, 266.16 192.52" style="stroke: black; fill: black;"/><path d="M 249.69,171.62 C 251.25 171.10, 252.05 170.17, 253.46 167.89 C 254.87 165.61, 255.04 163.65, 256.75 160.21 C 258.46 156.77, 259.20 154.47, 262.02 150.68 C 264.83 146.89, 266.68 144.83, 270.83 141.26 C 274.98 137.69, 277.68 135.56, 282.79 132.84 C 287.90 130.13, 290.89 128.83, 296.37 127.68 C 301.86 126.52, 304.75 126.35, 310.22 127.06 C 315.69 127.78, 318.63 128.71, 323.74 131.27 C 328.86 133.83, 331.50 135.60, 335.80 139.87 C 340.09 144.13, 342.19 146.84, 345.21 152.58 C 348.24 158.33, 349.52 161.74, 350.94 168.61 C 352.35 175.49, 352.61 179.29, 352.30 186.96 C 351.99 194.64, 351.43 198.93, 349.39 207.00 C 347.34 215.07, 345.78 219.54, 342.08 227.31 C 338.38 235.09, 335.89 238.99, 330.89 245.89 C 325.89 252.80, 322.87 256.26, 317.10 261.86 C 311.33 267.45, 307.91 269.99, 302.05 273.87 C 296.19 277.74, 292.89 279.31, 287.79 281.23 C 282.69 283.15, 280.16 283.16, 276.53 283.49 C 272.90 283.81, 271.52 283.16, 269.64 282.86 C 267.75 282.56, 267.77 282.28, 267.12 281.98 C 266.46 281.68, 266.70 281.63, 266.37 281.36 C 266.04 281.09, 266.19 280.80, 265.47 280.61 C 264.75 280.43, 263.52 280.04, 262.76 280.44 C 262.00 280.84, 261.60 281.40, 261.67 282.62 C 261.74 283.83, 261.77 285.03, 263.10 286.50 C 264.43 287.96, 265.45 289.36, 268.32 289.94 C 271.18 290.53, 273.18 290.29, 277.43 289.42 C 281.69 288.54, 284.23 288.01, 289.60 285.55 C 294.97 283.10, 298.28 281.38, 304.29 277.15 C 310.29 272.92, 313.73 270.26, 319.61 264.41 C 325.49 258.57, 328.57 255.03, 333.69 247.91 C 338.81 240.79, 341.37 236.81, 345.21 228.81 C 349.05 220.81, 350.69 216.23, 352.87 207.90 C 355.05 199.56, 355.69 195.15, 356.10 187.14 C 356.52 179.12, 356.34 175.13, 354.93 167.82 C 353.53 160.51, 352.26 156.82, 349.08 150.58 C 345.90 144.35, 343.69 141.34, 339.05 136.63 C 334.40 131.92, 331.51 129.92, 325.87 127.05 C 320.24 124.18, 316.96 123.14, 310.86 122.30 C 304.77 121.45, 301.48 121.65, 295.39 122.83 C 289.30 124.02, 286.04 125.42, 280.41 128.23 C 274.79 131.03, 271.97 133.24, 267.26 136.87 C 262.55 140.50, 260.38 142.56, 256.86 146.39 C 253.34 150.23, 252.09 152.48, 249.67 156.03 C 247.25 159.59, 245.57 161.28, 244.77 164.17 C 243.97 167.05, 244.67 168.96, 245.65 170.45 C 246.64 171.94, 248.13 172.13, 249.69 171.62" style="stroke: black; fill: black;"/><path d="M 408.40,264.26 C 408.08 262.62, 407.00 261.39, 404.87 260.29 C 402.74 259.19, 401.04 258.33, 397.74 258.77 C 394.45 259.21, 392.36 259.91, 388.41 262.49 C 384.45 265.06, 382.41 266.67, 377.97 271.64 C 373.53 276.61, 371.04 279.90, 366.20 287.34 C 361.36 294.78, 358.34 299.34, 353.76 308.83 C 349.19 318.32, 346.75 324.37, 343.33 334.80 C 339.91 345.24, 338.37 351.24, 336.67 361.00 C 334.96 370.76, 334.45 375.73, 334.81 383.61 C 335.16 391.49, 336.10 395.08, 338.44 400.41 C 340.79 405.74, 342.63 407.84, 346.53 410.28 C 350.43 412.72, 353.17 413.20, 357.94 412.60 C 362.72 412.00, 365.63 410.84, 370.42 407.27 C 375.21 403.70, 377.40 401.16, 381.91 394.74 C 386.42 388.31, 388.72 384.01, 392.98 375.15 C 397.23 366.30, 399.45 360.71, 403.17 350.46 C 406.90 340.20, 408.65 334.06, 411.60 323.89 C 414.55 313.71, 415.91 308.20, 417.91 299.57 C 419.91 290.95, 420.55 287.02, 421.59 280.76 C 422.63 274.49, 422.90 272.19, 423.12 268.24 C 423.33 264.29, 423.35 262.88, 422.66 261.00 C 421.96 259.11, 420.49 259.00, 419.63 258.81 C 418.76 258.62, 418.33 259.79, 418.33 260.04 C 418.33 260.28, 419.63 260.13, 419.63 260.04 C 419.63 259.95, 418.87 259.24, 418.34 259.60 C 417.82 259.96, 417.15 260.13, 417.00 261.85 C 416.85 263.56, 417.44 264.50, 417.57 268.18 C 417.69 271.86, 418.20 274.10, 417.62 280.24 C 417.05 286.38, 416.49 290.30, 414.70 298.87 C 412.92 307.43, 411.59 312.95, 408.70 323.05 C 405.82 333.16, 404.04 339.28, 400.27 349.39 C 396.51 359.50, 394.22 365.05, 389.87 373.62 C 385.52 382.20, 383.02 386.37, 378.54 392.28 C 374.06 398.19, 371.73 400.20, 367.46 403.18 C 363.19 406.16, 360.87 406.61, 357.20 407.17 C 353.53 407.73, 352.11 407.68, 349.12 405.97 C 346.13 404.27, 344.42 403.18, 342.25 398.67 C 340.08 394.15, 338.78 390.84, 338.27 383.41 C 337.76 375.99, 338.12 371.05, 339.71 361.52 C 341.29 351.98, 342.79 346.00, 346.19 335.75 C 349.59 325.50, 352.04 319.51, 356.69 310.27 C 361.34 301.03, 364.45 296.56, 369.44 289.55 C 374.44 282.54, 377.18 279.37, 381.65 275.24 C 386.12 271.12, 388.41 270.19, 391.79 268.91 C 395.16 267.63, 396.39 268.81, 398.52 268.83 C 400.66 268.85, 400.87 269.08, 402.45 269.01 C 404.04 268.94, 405.27 269.44, 406.46 268.49 C 407.65 267.54, 408.72 265.91, 408.40 264.26" style="stroke: black; fill: black;"/><path d="M 459.31,269.83 C 458.19 270.86, 457.89 271.69, 457.38 275.25 C 456.88 278.82, 457.35 281.25, 456.80 287.66 C 456.25 294.07, 455.81 298.56, 454.62 307.29 C 453.42 316.02, 452.30 321.64, 450.82 331.29 C 449.35 340.95, 448.62 346.61, 447.23 355.59 C 445.84 364.56, 445.17 369.13, 443.86 376.16 C 442.55 383.20, 441.46 386.12, 440.69 390.77 C 439.92 395.42, 439.44 397.21, 440.02 399.40 C 440.59 401.59, 442.23 402.26, 443.58 401.71 C 444.92 401.15, 446.26 400.14, 446.75 396.62 C 447.23 393.10, 446.12 390.50, 446.01 384.10 C 445.91 377.71, 445.63 373.46, 446.20 364.64 C 446.78 355.81, 447.27 350.05, 448.88 339.97 C 450.50 329.89, 451.73 323.91, 454.28 314.24 C 456.84 304.56, 458.45 299.49, 461.66 291.60 C 464.88 283.70, 466.80 280.27, 470.36 274.77 C 473.91 269.26, 475.92 267.25, 479.43 264.06 C 482.94 260.87, 484.97 260.15, 487.90 258.82 C 490.83 257.49, 492.23 257.94, 494.08 257.42 C 495.94 256.90, 496.34 256.67, 497.18 256.22 C 498.02 255.78, 497.95 255.54, 498.27 255.19 C 498.59 254.84, 498.50 254.85, 498.79 254.46 C 499.08 254.07, 499.63 253.77, 499.72 253.23 C 499.82 252.68, 499.82 252.34, 499.25 251.74 C 498.67 251.13, 498.26 250.52, 496.85 250.20 C 495.44 249.87, 494.63 249.53, 492.20 250.12 C 489.78 250.70, 487.95 250.99, 484.71 253.11 C 481.47 255.22, 479.53 256.76, 476.01 260.69 C 472.49 264.62, 470.58 266.83, 467.09 272.76 C 463.61 278.70, 461.75 282.23, 458.57 290.36 C 455.39 298.49, 453.81 303.61, 451.21 313.42 C 448.60 323.23, 447.36 329.24, 445.55 339.41 C 443.73 349.58, 443.15 355.37, 442.12 364.26 C 441.08 373.16, 440.96 377.46, 440.36 383.89 C 439.76 390.31, 438.86 392.86, 439.14 396.39 C 439.41 399.92, 440.50 400.88, 441.74 401.54 C 442.98 402.21, 444.52 401.71, 445.33 399.70 C 446.14 397.68, 445.30 396.04, 445.78 391.46 C 446.26 386.87, 446.74 383.86, 447.72 376.79 C 448.70 369.72, 449.35 365.09, 450.67 356.11 C 452.00 347.12, 452.72 341.49, 454.34 331.86 C 455.96 322.23, 457.20 316.65, 458.76 307.94 C 460.31 299.24, 461.06 294.74, 462.12 288.33 C 463.18 281.91, 463.86 279.52, 464.04 275.88 C 464.21 272.24, 463.93 271.33, 462.99 270.12 C 462.04 268.92, 460.43 268.81, 459.31 269.83" style="stroke: black; fill: black;"/><path d="M 556.01,169.30 C 554.63 169.35, 552.94 168.92, 551.60 171.38 C 550.26 173.84, 550.36 176.02, 549.29 181.60 C 548.22 187.17, 547.74 190.79, 546.26 199.26 C 544.78 207.74, 543.87 213.21, 541.89 223.98 C 539.90 234.74, 538.69 241.04, 536.33 253.10 C 533.97 265.15, 532.36 271.80, 530.09 284.26 C 527.83 296.72, 526.70 303.44, 525.02 315.39 C 523.33 327.34, 522.66 333.39, 521.68 344.01 C 520.70 354.63, 520.54 359.80, 520.10 368.50 C 519.67 377.19, 519.49 381.14, 519.50 387.49 C 519.50 393.84, 519.61 396.63, 520.12 400.26 C 520.63 403.88, 521.20 404.59, 522.04 405.59 C 522.88 406.60, 523.76 406.45, 524.32 405.30 C 524.88 404.14, 525.00 403.40, 524.84 399.82 C 524.68 396.24, 523.85 393.63, 523.53 387.38 C 523.20 381.14, 523.06 377.24, 523.23 368.61 C 523.40 359.98, 523.51 354.82, 524.36 344.24 C 525.21 333.67, 525.85 327.64, 527.48 315.74 C 529.12 303.83, 530.24 297.12, 532.53 284.70 C 534.83 272.28, 536.46 265.65, 538.96 253.63 C 541.45 241.61, 542.72 235.30, 545.01 224.60 C 547.30 213.90, 548.37 208.43, 550.41 200.13 C 552.45 191.84, 553.51 188.27, 555.22 183.13 C 556.92 177.98, 558.28 176.79, 558.93 174.40 C 559.59 172.01, 559.09 172.19, 558.50 171.17 C 557.91 170.15, 557.39 169.26, 556.01 169.30" style="stroke: black; fill: black;"/><path d="M 502.22,303.37 C 502.81 304.86, 503.57 306.50, 506.39 307.20 C 509.21 307.90, 511.36 307.58, 516.34 306.86 C 521.32 306.15, 524.70 305.61, 531.29 303.61 C 537.87 301.62, 541.92 300.08, 549.26 296.90 C 556.59 293.73, 560.78 291.62, 567.97 287.73 C 575.17 283.85, 578.62 281.55, 585.22 277.48 C 591.82 273.41, 595.15 271.49, 600.95 267.41 C 606.76 263.32, 609.57 261.34, 614.24 257.05 C 618.91 252.75, 620.97 250.52, 624.30 245.93 C 627.64 241.34, 628.82 238.97, 630.92 234.10 C 633.02 229.22, 633.71 226.63, 634.81 221.57 C 635.92 216.50, 636.17 213.73, 636.45 208.77 C 636.74 203.81, 636.47 201.22, 636.23 196.77 C 635.99 192.32, 636.15 190.04, 635.25 186.52 C 634.36 183.00, 633.89 181.17, 631.78 179.17 C 629.66 177.17, 627.51 176.14, 624.67 176.50 C 621.84 176.87, 620.10 177.58, 617.61 180.99 C 615.12 184.40, 614.45 186.97, 612.23 193.56 C 610.01 200.15, 608.78 204.01, 606.51 213.93 C 604.23 223.85, 602.99 230.01, 600.85 243.16 C 598.71 256.30, 597.68 264.47, 595.81 279.68 C 593.94 294.88, 593.07 303.50, 591.51 319.18 C 589.95 334.85, 589.09 343.52, 588.02 358.06 C 586.94 372.60, 586.61 379.63, 586.13 391.86 C 585.65 404.10, 585.69 409.65, 585.62 419.24 C 585.55 428.82, 585.69 432.95, 585.79 439.81 C 585.88 446.67, 585.69 449.71, 586.10 453.53 C 586.51 457.35, 586.85 458.19, 587.83 458.92 C 588.81 459.64, 590.27 459.25, 591.02 457.14 C 591.77 455.03, 591.69 452.67, 591.56 448.36 C 591.43 444.05, 590.90 440.37, 590.37 435.59 C 589.84 430.82, 590.25 426.72, 588.90 424.50 C 587.55 422.28, 585.00 422.20, 583.63 424.48 C 582.27 426.76, 582.26 430.98, 582.08 435.89 C 581.89 440.80, 582.15 444.57, 582.69 449.04 C 583.22 453.51, 583.29 456.17, 584.76 458.23 C 586.23 460.29, 588.73 460.36, 590.05 459.34 C 591.37 458.33, 591.48 457.10, 591.35 453.16 C 591.21 449.22, 589.98 446.42, 589.38 439.63 C 588.78 432.84, 588.53 428.75, 588.33 419.22 C 588.13 409.68, 588.05 404.14, 588.40 391.94 C 588.74 379.74, 589.04 372.72, 590.07 358.21 C 591.09 343.69, 591.95 335.03, 593.53 319.38 C 595.11 303.73, 596.01 295.11, 597.98 279.95 C 599.96 264.80, 601.04 256.63, 603.41 243.60 C 605.78 230.56, 607.14 224.42, 609.82 214.77 C 612.50 205.13, 614.09 201.30, 616.82 195.38 C 619.55 189.45, 621.65 187.80, 623.46 185.14 C 625.28 182.47, 625.34 182.43, 625.89 182.06 C 626.44 181.68, 625.93 181.97, 626.22 183.25 C 626.50 184.52, 626.69 185.59, 627.33 188.42 C 627.97 191.26, 628.81 193.42, 629.41 197.45 C 630.01 201.47, 630.36 203.96, 630.33 208.57 C 630.30 213.17, 630.11 215.75, 629.25 220.45 C 628.40 225.16, 627.84 227.55, 626.06 232.09 C 624.28 236.63, 623.32 238.80, 620.35 243.15 C 617.39 247.50, 615.58 249.64, 611.23 253.84 C 606.88 258.04, 604.22 260.05, 598.61 264.13 C 593.00 268.20, 589.69 270.18, 583.20 274.21 C 576.70 278.24, 573.25 280.54, 566.13 284.27 C 559.01 288.00, 554.83 290.04, 547.59 292.87 C 540.35 295.70, 536.30 297.03, 529.93 298.42 C 523.56 299.81, 520.23 299.74, 515.75 299.81 C 511.27 299.88, 509.98 298.78, 507.52 298.77 C 505.06 298.77, 504.52 298.85, 503.46 299.77 C 502.40 300.69, 501.64 301.89, 502.22 303.37" style="stroke: black; fill: black;"/><path d="M 578.33,327.85 C 579.73 327.45, 579.82 326.59, 581.14 324.98 C 582.47 323.38, 582.84 322.40, 584.93 319.84 C 587.02 317.27, 588.10 315.12, 591.58 312.15 C 595.05 309.19, 597.58 307.75, 602.29 305.03 C 607.01 302.30, 609.95 300.83, 615.14 298.53 C 620.33 296.23, 623.11 295.33, 628.24 293.52 C 633.37 291.71, 635.96 290.69, 640.79 289.47 C 645.63 288.26, 648.06 288.03, 652.41 287.44 C 656.75 286.85, 658.80 286.84, 662.50 286.52 C 666.20 286.21, 668.04 286.44, 670.91 285.87 C 673.78 285.31, 674.87 284.44, 676.85 283.70 C 678.83 282.97, 679.53 283.16, 680.81 282.20 C 682.09 281.24, 683.19 280.56, 683.24 278.91 C 683.30 277.25, 682.80 274.98, 681.10 273.92 C 679.40 272.86, 677.33 272.16, 674.75 273.60 C 672.16 275.04, 671.26 277.10, 668.16 281.13 C 665.06 285.16, 663.01 287.47, 659.25 293.76 C 655.49 300.05, 653.13 304.02, 649.35 312.58 C 645.56 321.14, 643.30 326.78, 640.32 336.57 C 637.34 346.35, 635.98 352.19, 634.43 361.49 C 632.87 370.79, 632.58 375.47, 632.56 383.06 C 632.53 390.64, 632.82 394.15, 634.30 399.43 C 635.78 404.70, 637.00 406.77, 639.95 409.44 C 642.90 412.11, 645.23 412.90, 649.04 412.77 C 652.85 412.63, 655.16 411.66, 658.98 408.75 C 662.81 405.84, 664.74 403.66, 668.18 398.22 C 671.62 392.78, 673.27 389.24, 676.19 381.55 C 679.11 373.87, 680.55 368.85, 682.79 359.80 C 685.03 350.75, 686.04 345.34, 687.39 336.31 C 688.74 327.27, 689.00 322.31, 689.54 314.61 C 690.09 306.91, 689.95 303.53, 690.11 297.81 C 690.28 292.09, 690.36 289.72, 690.36 285.99 C 690.36 282.25, 690.39 281.00, 690.10 279.14 C 689.81 277.29, 689.21 277.42, 688.90 276.72 C 688.58 276.02, 688.92 276.04, 688.53 275.64 C 688.13 275.24, 687.57 274.66, 686.90 274.72 C 686.24 274.78, 685.87 275.04, 685.22 275.96 C 684.57 276.88, 683.84 277.25, 683.66 279.32 C 683.47 281.39, 683.90 282.60, 684.29 286.31 C 684.68 290.02, 685.31 292.25, 685.61 297.86 C 685.91 303.48, 686.12 306.80, 685.77 314.39 C 685.42 321.97, 685.19 326.88, 683.88 335.79 C 682.57 344.69, 681.55 350.05, 679.23 358.89 C 676.90 367.73, 675.35 372.70, 672.27 379.98 C 669.20 387.27, 667.27 390.58, 663.86 395.31 C 660.44 400.04, 658.27 401.47, 655.21 403.64 C 652.16 405.82, 650.88 405.90, 648.57 406.19 C 646.27 406.49, 645.69 406.74, 643.70 405.12 C 641.72 403.50, 640.14 402.52, 638.65 398.10 C 637.16 393.68, 636.45 390.23, 636.26 383.02 C 636.08 375.80, 636.27 371.12, 637.72 362.03 C 639.18 352.94, 640.52 347.14, 643.54 337.56 C 646.55 327.99, 648.84 322.39, 652.80 314.17 C 656.76 305.95, 659.21 302.06, 663.33 296.47 C 667.45 290.87, 669.95 288.99, 673.42 286.19 C 676.90 283.38, 679.00 283.88, 680.69 282.44 C 682.38 281.01, 681.97 280.32, 681.88 279.01 C 681.79 277.70, 681.01 276.75, 680.25 275.90 C 679.50 275.06, 679.28 274.85, 678.10 274.80 C 676.91 274.74, 676.18 275.17, 674.33 275.63 C 672.47 276.09, 671.43 276.37, 668.83 277.10 C 666.24 277.83, 664.85 278.46, 661.35 279.30 C 657.85 280.13, 655.72 280.31, 651.32 281.26 C 646.91 282.21, 644.30 282.59, 639.32 284.03 C 634.34 285.47, 631.70 286.56, 626.44 288.46 C 621.17 290.35, 618.38 291.25, 612.98 293.51 C 607.58 295.77, 604.59 297.16, 599.45 299.75 C 594.31 302.34, 591.52 303.63, 587.29 306.46 C 583.07 309.29, 581.14 311.00, 578.32 313.90 C 575.50 316.79, 574.02 318.30, 573.19 320.92 C 572.35 323.54, 573.12 325.60, 574.15 326.99 C 575.18 328.37, 576.93 328.25, 578.33 327.85" style="stroke: black; fill: black;"/><path d="M 744.69,195.47 C 743.52 196.77, 743.43 198.15, 742.61 202.63 C 741.78 207.11, 741.50 210.04, 740.56 217.88 C 739.61 225.72, 739.20 231.10, 737.88 241.84 C 736.55 252.57, 735.69 259.17, 733.92 271.55 C 732.14 283.94, 731.00 291.21, 729.01 303.75 C 727.02 316.29, 725.86 322.84, 723.96 334.26 C 722.06 345.68, 720.91 351.52, 719.51 360.86 C 718.11 370.20, 717.67 374.37, 716.97 380.96 C 716.27 387.55, 715.30 390.09, 715.99 393.82 C 716.68 397.54, 718.34 399.49, 720.42 399.60 C 722.50 399.72, 724.15 398.67, 726.37 394.39 C 728.60 390.12, 728.65 386.33, 731.54 378.24 C 734.44 370.14, 736.48 364.48, 740.86 353.93 C 745.24 343.39, 748.19 336.45, 753.43 325.52 C 758.67 314.59, 761.85 308.44, 767.05 299.30 C 772.25 290.16, 775.47 285.40, 779.45 279.82 C 783.43 274.23, 785.35 272.65, 786.95 271.37 C 788.55 270.09, 787.38 270.24, 787.46 273.42 C 787.53 276.59, 787.82 279.89, 787.30 287.26 C 786.79 294.64, 786.00 300.30, 784.88 310.27 C 783.76 320.25, 782.93 326.77, 781.71 337.16 C 780.49 347.55, 779.65 353.26, 778.76 362.22 C 777.88 371.18, 777.42 375.52, 777.28 381.95 C 777.15 388.38, 777.42 390.83, 778.10 394.38 C 778.78 397.93, 779.71 398.75, 780.67 399.70 C 781.63 400.65, 782.50 400.32, 782.91 399.12 C 783.31 397.93, 783.02 397.16, 782.71 393.73 C 782.40 390.29, 781.46 388.19, 781.34 381.95 C 781.23 375.71, 781.41 371.40, 782.14 362.53 C 782.87 353.65, 783.70 347.92, 785.01 337.56 C 786.31 327.20, 787.34 320.73, 788.68 310.74 C 790.02 300.75, 791.05 295.25, 791.72 287.61 C 792.39 279.97, 793.33 276.50, 792.02 272.53 C 790.71 268.56, 788.27 266.72, 785.17 267.76 C 782.07 268.81, 780.65 271.74, 776.51 277.76 C 772.37 283.78, 769.59 288.54, 764.46 297.85 C 759.33 307.15, 756.18 313.32, 750.85 324.27 C 745.52 335.23, 742.48 342.14, 737.82 352.63 C 733.17 363.11, 730.86 368.79, 727.58 376.70 C 724.29 384.62, 722.85 388.09, 721.39 392.21 C 719.93 396.33, 720.35 397.09, 720.29 397.33 C 720.23 397.56, 721.00 396.59, 721.09 393.38 C 721.19 390.16, 720.49 387.67, 720.76 381.24 C 721.03 374.82, 721.29 370.57, 722.44 361.26 C 723.59 351.94, 724.70 346.10, 726.51 334.67 C 728.32 323.25, 729.48 316.69, 731.50 304.14 C 733.52 291.60, 734.69 284.33, 736.62 271.96 C 738.56 259.59, 739.53 252.98, 741.17 242.29 C 742.81 231.60, 743.49 226.26, 744.83 218.51 C 746.18 210.76, 747.17 208.01, 747.90 203.54 C 748.62 199.07, 749.09 197.77, 748.45 196.16 C 747.81 194.54, 745.86 194.18, 744.69 195.47" style="stroke: black; fill: black;"/><path d="M 803.24,209.23 C 803.62 207.67, 802.99 206.48, 802.27 206.34 C 801.55 206.20, 800.35 207.27, 799.65 208.54 C 798.96 209.81, 799.02 211.31, 798.79 212.67 C 798.57 214.04, 798.22 215.08, 798.54 215.37 C 798.85 215.66, 799.42 215.35, 800.37 214.12 C 801.31 212.90, 802.86 210.78, 803.24 209.23" style="stroke: black; fill: black;"/><path d="M 883.06,283.41 C 882.47 282.11, 881.85 281.51, 879.90 280.87 C 877.95 280.24, 876.35 279.41, 873.30 280.23 C 870.25 281.05, 868.30 282.32, 864.66 284.96 C 861.01 287.60, 859.10 289.07, 855.07 293.43 C 851.04 297.79, 848.66 300.24, 844.50 306.77 C 840.34 313.30, 838.05 317.52, 834.28 326.08 C 830.50 334.65, 828.45 339.96, 825.63 349.59 C 822.82 359.22, 821.53 364.98, 820.20 374.23 C 818.87 383.48, 818.58 388.37, 818.99 395.83 C 819.40 403.29, 819.96 406.51, 822.25 411.54 C 824.54 416.56, 826.42 418.69, 830.45 420.96 C 834.48 423.22, 837.41 423.49, 842.40 422.87 C 847.38 422.25, 850.24 421.11, 855.39 417.86 C 860.54 414.61, 863.19 412.25, 868.13 406.62 C 873.06 400.98, 875.62 397.33, 880.07 389.67 C 884.51 382.00, 886.83 377.14, 890.37 368.29 C 893.91 359.43, 895.48 354.15, 897.78 345.37 C 900.07 336.60, 901.04 332.03, 901.84 324.41 C 902.63 316.79, 902.46 313.16, 901.76 307.27 C 901.06 301.38, 900.35 298.77, 898.35 294.98 C 896.36 291.19, 894.79 289.95, 891.78 288.32 C 888.77 286.68, 886.31 286.65, 883.30 286.81 C 880.28 286.97, 878.58 287.80, 876.71 289.12 C 874.84 290.44, 874.13 291.87, 873.96 293.39 C 873.80 294.91, 874.66 296.01, 875.89 296.72 C 877.12 297.43, 878.40 297.19, 880.10 296.96 C 881.80 296.73, 882.61 296.02, 884.38 295.59 C 886.15 295.16, 887.17 294.37, 888.97 294.82 C 890.77 295.26, 891.70 295.20, 893.37 297.82 C 895.04 300.45, 896.36 302.68, 897.30 307.93 C 898.25 313.18, 898.67 316.75, 898.10 324.06 C 897.52 331.38, 896.62 335.92, 894.44 344.51 C 892.25 353.09, 890.68 358.34, 887.16 366.99 C 883.64 375.64, 881.29 380.41, 876.83 387.75 C 872.38 395.09, 869.72 398.54, 864.90 403.69 C 860.07 408.84, 857.36 410.74, 852.71 413.48 C 848.07 416.23, 845.63 416.81, 841.66 417.40 C 837.69 417.99, 835.96 417.98, 832.87 416.43 C 829.78 414.88, 828.25 413.84, 826.21 409.67 C 824.18 405.50, 823.25 402.58, 822.71 395.59 C 822.18 388.59, 822.32 383.71, 823.54 374.70 C 824.76 365.69, 826.02 359.96, 828.83 350.53 C 831.64 341.11, 833.74 335.86, 837.60 327.59 C 841.46 319.33, 843.85 315.22, 848.13 309.21 C 852.42 303.20, 854.94 300.98, 859.02 297.53 C 863.10 294.09, 865.16 293.25, 868.54 292.01 C 871.93 290.77, 873.60 291.80, 875.95 291.34 C 878.30 290.87, 878.91 290.46, 880.30 289.67 C 881.69 288.88, 882.33 288.64, 882.88 287.39 C 883.44 286.14, 883.66 284.72, 883.06 283.41" style="stroke: black; fill: black;"/></svg>